solid OpenSCAD_Model
  facet normal -1 0 0
    outer loop
      vertex 0 0 0
      vertex 0 0 2.4
      vertex 0 12 27
    endloop
  endfacet
  facet normal -1 0 0
    outer loop
      vertex 0 0 0
      vertex 0 12 2.4
      vertex 0 2.4 0
    endloop
  endfacet
  facet normal -1 0 0
    outer loop
      vertex 0 12 27
      vertex 0 0 2.4
      vertex 0 0 17.456896551724135
    endloop
  endfacet
  facet normal 1 0 0
    outer loop
      vertex 2.4 12 27
      vertex 2.4 2.4 27
      vertex 2.4 2.4 2.4
    endloop
  endfacet
  facet normal -1 0 0
    outer loop
      vertex 0 0 17.456896551724135
      vertex 0 0 27
      vertex 0 2.4 27
    endloop
  endfacet
  facet normal -1 0 0
    outer loop
      vertex 0 0 17.456896551724135
      vertex 0 2.4 27
      vertex 0 12 27
    endloop
  endfacet
  facet normal 0 0 1
    outer loop
      vertex 0 12 27
      vertex 0 2.4 27
      vertex 2.4 2.4 27
    endloop
  endfacet
  facet normal -1 0 0
    outer loop
      vertex 0 12 0
      vertex 0 2.4 0
      vertex 0 12 2.4
    endloop
  endfacet
  facet normal -1 0 0
    outer loop
      vertex 0 0 0
      vertex 0 12 27
      vertex 0 12 2.4
    endloop
  endfacet
  facet normal 1 0 0
    outer loop
      vertex 2.4 12 2.4
      vertex 2.4 12 27
      vertex 2.4 2.4 2.4
    endloop
  endfacet
  facet normal 0 1 0
    outer loop
      vertex 0 12 2.4
      vertex 2.4 12 27
      vertex 2.4 12 2.4
    endloop
  endfacet
  facet normal 0 1 0
    outer loop
      vertex 0 12 2.4
      vertex 0 12 27
      vertex 2.4 12 27
    endloop
  endfacet
  facet normal 0 0 1
    outer loop
      vertex 0 12 27
      vertex 2.4 2.4 27
      vertex 2.4 12 27
    endloop
  endfacet
  facet normal -1 0 0
    outer loop
      vertex 98.8 12 2.4
      vertex 98.8 2.4 2.4
      vertex 98.8 2.4 27
    endloop
  endfacet
  facet normal 0 0 1
    outer loop
      vertex 98.8 12 27
      vertex 98.8 2.4 27
      vertex 101.2 2.4 27
    endloop
  endfacet
  facet normal -1 0 0
    outer loop
      vertex 98.8 12 2.4
      vertex 98.8 2.4 27
      vertex 98.8 12 27
    endloop
  endfacet
  facet normal 0 1 0
    outer loop
      vertex 98.8 12 2.4
      vertex 98.8 12 27
      vertex 101.2 12 27
    endloop
  endfacet
  facet normal 1 0 0
    outer loop
      vertex 101.2 12 27
      vertex 101.2 2.4 27
      vertex 101.2 2.4 2.4
    endloop
  endfacet
  facet normal 1 0 0
    outer loop
      vertex 101.2 12 2.4
      vertex 101.2 12 27
      vertex 101.2 2.4 2.4
    endloop
  endfacet
  facet normal 0 1 0
    outer loop
      vertex 98.8 12 2.4
      vertex 101.2 12 27
      vertex 101.2 12 2.4
    endloop
  endfacet
  facet normal 0 0 1
    outer loop
      vertex 98.8 12 27
      vertex 101.2 2.4 27
      vertex 101.2 12 27
    endloop
  endfacet
  facet normal 1 0 0
    outer loop
      vertex 200 0 0
      vertex 200 5.466666666666667 2.4
      vertex 200 0 2.4
    endloop
  endfacet
  facet normal 1 0 0
    outer loop
      vertex 200 0 2.4
      vertex 200 5.466666666666667 2.4
      vertex 200 0 27
    endloop
  endfacet
  facet normal 1 0 0
    outer loop
      vertex 200 5.466666666666667 2.4
      vertex 200 2.4 21.6
      vertex 200 0 27
    endloop
  endfacet
  facet normal 1 0 0
    outer loop
      vertex 200 0 0
      vertex 200 12 0
      vertex 200 5.466666666666667 2.4
    endloop
  endfacet
  facet normal -1 0 0
    outer loop
      vertex 197.6 12 2.4
      vertex 197.6 2.4 2.4
      vertex 197.6 2.4 27
    endloop
  endfacet
  facet normal 1 0 0
    outer loop
      vertex 200 12 27
      vertex 200 2.4 27
      vertex 200 2.4 21.6
    endloop
  endfacet
  facet normal 0 0 1
    outer loop
      vertex 197.6 12 27
      vertex 197.6 2.4 27
      vertex 200 2.4 27
    endloop
  endfacet
  facet normal 1 0 0
    outer loop
      vertex 200 10.933333333333334 2.4
      vertex 200 2.4 21.6
      vertex 200 5.466666666666667 2.4
    endloop
  endfacet
  facet normal 1 0 0
    outer loop
      vertex 200 10.933333333333334 2.4
      vertex 200 12 27
      vertex 200 2.4 21.6
    endloop
  endfacet
  facet normal -1 0 0
    outer loop
      vertex 197.6 12 2.4
      vertex 197.6 2.4 27
      vertex 197.6 12 27
    endloop
  endfacet
  facet normal 1 0 0
    outer loop
      vertex 200 10.933333333333334 2.4
      vertex 200 12 0
      vertex 200 12 2.4
    endloop
  endfacet
  facet normal 1 0 0
    outer loop
      vertex 200 10.933333333333334 2.4
      vertex 200 12 2.4
      vertex 200 12 27
    endloop
  endfacet
  facet normal 0 1 0
    outer loop
      vertex 197.6 12 2.4
      vertex 200 12 27
      vertex 200 12 2.4
    endloop
  endfacet
  facet normal 0 1 0
    outer loop
      vertex 197.6 12 2.4
      vertex 197.6 12 27
      vertex 200 12 27
    endloop
  endfacet
  facet normal 0 0 1
    outer loop
      vertex 197.6 12 27
      vertex 200 2.4 27
      vertex 200 12 27
    endloop
  endfacet
  facet normal 0 1 0
    outer loop
      vertex 98.8 2.4 2.4
      vertex 2.4 2.4 2.4
      vertex 2.4 2.4 27
    endloop
  endfacet
  facet normal 0 0 -1
    outer loop
      vertex 0 2.4 0
      vertex 160 2.4 0
      vertex 0 0 0
    endloop
  endfacet
  facet normal 0 -1 0
    outer loop
      vertex 200 0 45
      vertex 0 0 2.4
      vertex 0 0 0
    endloop
  endfacet
  facet normal 0 -1 0
    outer loop
      vertex 200 0 45
      vertex 0 0 17.456896551724135
      vertex 0 0 2.4
    endloop
  endfacet
  facet normal -1 0 0
    outer loop
      vertex 0 0 45
      vertex 0 2.4 27
      vertex 0 0 27
    endloop
  endfacet
  facet normal 0 1 0
    outer loop
      vertex 0 2.4 45
      vertex 2.4 2.4 27
      vertex 0 2.4 27
    endloop
  endfacet
  facet normal 0 1 0
    outer loop
      vertex 0 2.4 45
      vertex 98.8 2.4 2.4
      vertex 2.4 2.4 27
    endloop
  endfacet
  facet normal -1 0 0
    outer loop
      vertex 0 0 45
      vertex 0 2.4 45
      vertex 0 2.4 27
    endloop
  endfacet
  facet normal 0 -1 0
    outer loop
      vertex 0 0 27
      vertex 0 0 17.456896551724135
      vertex 200 0 45
    endloop
  endfacet
  facet normal 0 1 0
    outer loop
      vertex 0 2.4 45
      vertex 98.8 2.4 27
      vertex 98.8 2.4 2.4
    endloop
  endfacet
  facet normal 0 -1 0
    outer loop
      vertex 0 0 45
      vertex 0 0 27
      vertex 200 0 45
    endloop
  endfacet
  facet normal 0 0 1
    outer loop
      vertex 0 0 45
      vertex 200 0 45
      vertex 0 2.4 45
    endloop
  endfacet
  facet normal 0 1 0
    outer loop
      vertex 0 2.4 45
      vertex 200 2.4 45
      vertex 98.8 2.4 27
    endloop
  endfacet
  facet normal 0 0 -1
    outer loop
      vertex 200 0 0
      vertex 0 0 0
      vertex 166.66666666666669 2 0
    endloop
  endfacet
  facet normal 0 -1 0
    outer loop
      vertex 200 0 2.4
      vertex 200 0 27
      vertex 0 0 0
    endloop
  endfacet
  facet normal 0 1 0
    outer loop
      vertex 197.6 2.4 27
      vertex 101.2 2.4 2.4
      vertex 101.2 2.4 27
    endloop
  endfacet
  facet normal 0 1 0
    outer loop
      vertex 197.6 2.4 27
      vertex 197.6 2.4 2.4
      vertex 101.2 2.4 2.4
    endloop
  endfacet
  facet normal 0 -1 0
    outer loop
      vertex 200 0 45
      vertex 0 0 0
      vertex 200 0 27
    endloop
  endfacet
  facet normal 0 1 0
    outer loop
      vertex 200 2.4 45
      vertex 101.2 2.4 27
      vertex 98.8 2.4 27
    endloop
  endfacet
  facet normal 0 0 1
    outer loop
      vertex 0 2.4 45
      vertex 200 0 45
      vertex 200 2.4 45
    endloop
  endfacet
  facet normal 0 1 0
    outer loop
      vertex 200 2.4 45
      vertex 197.6 2.4 27
      vertex 101.2 2.4 27
    endloop
  endfacet
  facet normal 1 0 0
    outer loop
      vertex 200 0 27
      vertex 200 2.4 21.6
      vertex 200 2.4 27
    endloop
  endfacet
  facet normal 1 0 0
    outer loop
      vertex 200 2.4 45
      vertex 200 0 27
      vertex 200 2.4 27
    endloop
  endfacet
  facet normal 0 1 0
    outer loop
      vertex 200 2.4 45
      vertex 200 2.4 27
      vertex 197.6 2.4 27
    endloop
  endfacet
  facet normal 1 0 0
    outer loop
      vertex 200 0 45
      vertex 200 0 27
      vertex 200 2.4 45
    endloop
  endfacet
  facet normal 0 0 1
    outer loop
      vertex 2.4 12 2.4
      vertex 2.4 2.4 2.4
      vertex 98.8 2.4 2.4
    endloop
  endfacet
  facet normal 0 0 -1
    outer loop
      vertex 0 12 0
      vertex 160 2.4 0
      vertex 0 2.4 0
    endloop
  endfacet
  facet normal 0 0 1
    outer loop
      vertex 2.4 12 2.4
      vertex 98.8 2.4 2.4
      vertex 98.8 12 2.4
    endloop
  endfacet
  facet normal 0 1 0
    outer loop
      vertex 0 12 0
      vertex 0 12 2.4
      vertex 200 12 0
    endloop
  endfacet
  facet normal 0 1 0
    outer loop
      vertex 0 12 2.4
      vertex 2.4 12 2.4
      vertex 200 12 0
    endloop
  endfacet
  facet normal 0 0 -1
    outer loop
      vertex 160 2.4 0
      vertex 166.66666666666669 2 0
      vertex 0 0 0
    endloop
  endfacet
  facet normal 0 -1 0
    outer loop
      vertex 200 0 0
      vertex 200 0 2.4
      vertex 0 0 0
    endloop
  endfacet
  facet normal 0 0 1
    outer loop
      vertex 101.2 12 2.4
      vertex 101.2 2.4 2.4
      vertex 197.6 2.4 2.4
    endloop
  endfacet
  facet normal 0 0 -1
    outer loop
      vertex 200 12 0
      vertex 166.66666666666669 2 0
      vertex 160 2.4 0
    endloop
  endfacet
  facet normal 0 0 -1
    outer loop
      vertex 200 12 0
      vertex 200 0 0
      vertex 166.66666666666669 2 0
    endloop
  endfacet
  facet normal 0 0 -1
    outer loop
      vertex 0 12 0
      vertex 200 12 0
      vertex 160 2.4 0
    endloop
  endfacet
  facet normal 0 1 0
    outer loop
      vertex 2.4 12 2.4
      vertex 98.8 12 2.4
      vertex 200 12 0
    endloop
  endfacet
  facet normal 0 1 0
    outer loop
      vertex 98.8 12 2.4
      vertex 101.2 12 2.4
      vertex 200 12 0
    endloop
  endfacet
  facet normal 0 0 1
    outer loop
      vertex 101.2 12 2.4
      vertex 197.6 2.4 2.4
      vertex 197.6 12 2.4
    endloop
  endfacet
  facet normal 0 1 0
    outer loop
      vertex 101.2 12 2.4
      vertex 197.6 12 2.4
      vertex 200 12 0
    endloop
  endfacet
  facet normal 1 0 0
    outer loop
      vertex 200 5.466666666666667 2.4
      vertex 200 12 0
      vertex 200 10.933333333333334 2.4
    endloop
  endfacet
  facet normal 0 1 0
    outer loop
      vertex 200 12 0
      vertex 197.6 12 2.4
      vertex 200 12 2.4
    endloop
  endfacet
endsolid OpenSCAD_Model
