solid OpenSCAD_Model
  facet normal 0.5956993044924309 0 0.8032075314806467
    outer loop
      vertex 31.37485372669083 0 0.4159163730981037
      vertex 31.935652036877133 0 0
      vertex 31.37485372669083 2.42 0.4159163730981037
    endloop
  endfacet
  facet normal 0.5956993044924309 -3.746731853459581e-18 0.8032075314806467
    outer loop
      vertex 31.37485372669083 2.42 0.4159163730981037
      vertex 31.935652036877133 0 0
      vertex 31.935652036877133 2.42 0
    endloop
  endfacet
  facet normal 0.6715589548470198 0 0.7409511253549579
    outer loop
      vertex 31.37485372669083 0 0.4159163730981037
      vertex 31.37485372669083 2.42 0.4159163730981037
      vertex 30.793145750507616 0 0.9431457505076191
    endloop
  endfacet
  facet normal 0.6715589548470198 -4.6668680327860734e-18 0.7409511253549579
    outer loop
      vertex 31.37485372669083 2.42 0.4159163730981037
      vertex 30.793145750507616 2.42 0.9431457505076191
      vertex 30.793145750507616 0 0.9431457505076191
    endloop
  endfacet
  facet normal 0.7409511253549593 0 0.671558954847018
    outer loop
      vertex 30.793145750507616 0 0.9431457505076191
      vertex 30.793145750507616 2.42 0.9431457505076191
      vertex 30.2659163730981 0 1.5248537266908357
    endloop
  endfacet
  facet normal 0 -1 0
    outer loop
      vertex 31.37485372669083 2.42 0.4159163730981037
      vertex 31.935652036877133 2.42 0
      vertex 41.52514627330916 2.42 0.4159163730981037
    endloop
  endfacet
  facet normal 0 -1 0
    outer loop
      vertex 31.37485372669083 2.42 0.4159163730981037
      vertex 41.52514627330916 2.42 0.4159163730981037
      vertex 30.793145750507616 2.42 0.9431457505076191
    endloop
  endfacet
  facet normal 0 -1 0
    outer loop
      vertex 30.793145750507616 2.42 0.9431457505076191
      vertex 42.10685424949238 2.42 0.9431457505076191
      vertex 30.2659163730981 2.42 1.5248537266908357
    endloop
  endfacet
  facet normal 0.7409511253549593 -1.363706742252101e-17 0.671558954847018
    outer loop
      vertex 30.793145750507616 2.42 0.9431457505076191
      vertex 30.2659163730981 2.42 1.5248537266908357
      vertex 30.2659163730981 0 1.5248537266908357
    endloop
  endfacet
  facet normal 0.803207531480644 4.945300864689154e-16 0.5956993044924344
    outer loop
      vertex 30.2659163730981 0 1.5248537266908357
      vertex 30.21018409844805 2.4 1.6
      vertex 29.798243101579633 0 2.1554381358431822
    endloop
  endfacet
  facet normal 0.8032075314806366 0 0.5956993044924447
    outer loop
      vertex 30.2659163730981 0 1.5248537266908357
      vertex 30.2659163730981 2.42 1.5248537266908357
      vertex 30.21018409844805 2.4 1.6
    endloop
  endfacet
  facet normal 0.8032075314806366 7.662088621748615e-17 0.5956993044924447
    outer loop
      vertex 30.2659163730981 2.42 1.5248537266908357
      vertex 30.21018409844805 2.42 1.6
      vertex 30.21018409844805 2.4 1.6
    endloop
  endfacet
  facet normal 0.8032075314806452 3.8508134674464036e-18 0.595699304492433
    outer loop
      vertex 30.21018409844805 2.4 1.6
      vertex 29.798243101579633 2.4 2.1554381358431822
      vertex 29.798243101579633 0 2.1554381358431822
    endloop
  endfacet
  facet normal 0.8577286100002729 0 0.5141027441932204
    outer loop
      vertex 29.798243101579633 0 2.1554381358431822
      vertex 29.798243101579633 2.4 2.1554381358431822
      vertex 29.394629885213156 0 2.8288261053920185
    endloop
  endfacet
  facet normal 0 -1 0
    outer loop
      vertex 30.2659163730981 2.42 1.5248537266908357
      vertex 42.68981590155194 2.42 1.6
      vertex 30.21018409844805 2.42 1.6
    endloop
  endfacet
  facet normal 0.8577286100002729 -8.62969873212817e-18 0.5141027441932204
    outer loop
      vertex 29.798243101579633 2.4 2.1554381358431822
      vertex 29.394629885213156 2.4 2.8288261053920185
      vertex 29.394629885213156 0 2.8288261053920185
    endloop
  endfacet
  facet normal 0.9039892931234421 0 0.42755509343028464
    outer loop
      vertex 29.394629885213156 0 2.8288261053920185
      vertex 29.394629885213156 2.4 2.8288261053920185
      vertex 29.0589637399097 0 3.5385325410792814
    endloop
  endfacet
  facet normal 0.9039892931234421 1.8554570196632726e-18 0.42755509343028464
    outer loop
      vertex 29.394629885213156 2.4 2.8288261053920185
      vertex 29.0589637399097 2.4 3.5385325410792814
      vertex 29.0589637399097 0 3.5385325410792814
    endloop
  endfacet
  facet normal 0.9415440651830224 0 0.3368898533922155
    outer loop
      vertex 29.0589637399097 0 3.5385325410792814
      vertex 29.0589637399097 2.4 3.5385325410792814
      vertex 28.794477314142327 0 4.277722581964301
    endloop
  endfacet
  facet normal 0.9415440651830224 3.6690841749573734e-18 0.3368898533922155
    outer loop
      vertex 29.0589637399097 2.4 3.5385325410792814
      vertex 28.794477314142327 2.4 4.277722581964301
      vertex 28.794477314142327 0 4.277722581964301
    endloop
  endfacet
  facet normal 0.9700312531945434 0 0.24298017990326626
    outer loop
      vertex 28.794477314142327 0 4.277722581964301
      vertex 28.794477314142327 2.4 4.277722581964301
      vertex 28.603717756774152 0 5.039277423870974
    endloop
  endfacet
  facet normal 0.9700312531945434 5.340869354326767e-19 0.24298017990326626
    outer loop
      vertex 28.794477314142327 2.4 4.277722581964301
      vertex 28.603717756774152 2.4 5.039277423870974
      vertex 28.603717756774152 0 5.039277423870974
    endloop
  endfacet
  facet normal 0.9891765099647805 0 0.14673047445536477
    outer loop
      vertex 28.603717756774152 0 5.039277423870974
      vertex 28.603717756774152 2.4 5.039277423870974
      vertex 28.48852218662242 0 5.815862877363514
    endloop
  endfacet
  facet normal 0.9891765099647805 -1.799146757981797e-18 0.14673047445536477
    outer loop
      vertex 28.603717756774152 2.4 5.039277423870974
      vertex 28.48852218662242 2.4 5.815862877363514
      vertex 28.48852218662242 0 5.815862877363514
    endloop
  endfacet
  facet normal 0.9987954562051725 0 0.049067674327415295
    outer loop
      vertex 28.48852218662242 0 5.815862877363514
      vertex 28.48852218662242 2.4 5.815862877363514
      vertex 28.449999999999996 0 6.6
    endloop
  endfacet
  facet normal 0.9987954562051725 -6.064150823416474e-19 0.049067674327415295
    outer loop
      vertex 28.48852218662242 2.4 5.815862877363514
      vertex 28.449999999999996 2.4 6.6
      vertex 28.449999999999996 0 6.6
    endloop
  endfacet
  facet normal 0 -1 0
    outer loop
      vertex 31.935652036877133 2.42 0
      vertex 40.96434796312286 2.42 0
      vertex 41.52514627330916 2.42 0.4159163730981037
    endloop
  endfacet
  facet normal 0 -1 0
    outer loop
      vertex 30.793145750507616 2.42 0.9431457505076191
      vertex 41.52514627330916 2.42 0.4159163730981037
      vertex 42.10685424949238 2.42 0.9431457505076191
    endloop
  endfacet
  facet normal -0.5956993044924334 -1.5130481596509004e-19 0.8032075314806449
    outer loop
      vertex 40.96434796312286 0 0
      vertex 41.52514627330916 0 0.4159163730981037
      vertex 41.52514627330916 2.42 0.4159163730981037
    endloop
  endfacet
  facet normal -0.5956993044924334 0 0.8032075314806449
    outer loop
      vertex 40.96434796312286 0 0
      vertex 41.52514627330916 2.42 0.4159163730981037
      vertex 40.96434796312286 2.42 0
    endloop
  endfacet
  facet normal -0.6715589548470174 0 0.74095112535496
    outer loop
      vertex 41.52514627330916 0 0.4159163730981037
      vertex 42.10685424949238 2.42 0.9431457505076191
      vertex 41.52514627330916 2.42 0.4159163730981037
    endloop
  endfacet
  facet normal -0.6715589548470174 -2.8514846401989428e-18 0.74095112535496
    outer loop
      vertex 41.52514627330916 0 0.4159163730981037
      vertex 42.10685424949238 0 0.9431457505076191
      vertex 42.10685424949238 2.42 0.9431457505076191
    endloop
  endfacet
  facet normal -0.7409511253549618 0 0.6715589548470156
    outer loop
      vertex 42.10685424949238 0 0.9431457505076191
      vertex 42.63408362690189 2.42 1.5248537266908357
      vertex 42.10685424949238 2.42 0.9431457505076191
    endloop
  endfacet
  facet normal 0 -1 0
    outer loop
      vertex 30.2659163730981 2.42 1.5248537266908357
      vertex 42.10685424949238 2.42 0.9431457505076191
      vertex 42.63408362690189 2.42 1.5248537266908357
    endloop
  endfacet
  facet normal 0 -1 0
    outer loop
      vertex 30.2659163730981 2.42 1.5248537266908357
      vertex 42.63408362690189 2.42 1.5248537266908357
      vertex 42.68981590155194 2.42 1.6
    endloop
  endfacet
  facet normal -0.7409511253549618 6.937090501513458e-18 0.6715589548470156
    outer loop
      vertex 42.10685424949238 0 0.9431457505076191
      vertex 42.63408362690189 0 1.5248537266908357
      vertex 42.63408362690189 2.42 1.5248537266908357
    endloop
  endfacet
  facet normal -0.8032075314806185 0 0.5956993044924691
    outer loop
      vertex 42.63408362690189 0 1.5248537266908357
      vertex 42.689815901551945 2.4 1.6
      vertex 42.63408362690189 2.42 1.5248537266908357
    endloop
  endfacet
  facet normal -0.8032075314806547 -2.8552636875215824e-13 0.59569930449242
    outer loop
      vertex 42.63408362690189 2.42 1.5248537266908357
      vertex 42.689815901551945 2.4 1.6
      vertex 42.68981590155194 2.42 1.6
    endloop
  endfacet
  facet normal -0.8032075314806499 2.0729459885703847e-15 0.5956993044924264
    outer loop
      vertex 42.63408362690189 0 1.5248537266908357
      vertex 43.101756898420355 2.4 2.1554381358431822
      vertex 42.689815901551945 2.4 1.6
    endloop
  endfacet
  facet normal -0.8032075314806464 2.8817565361587816e-18 0.5956993044924315
    outer loop
      vertex 42.63408362690189 0 1.5248537266908357
      vertex 43.101756898420355 0 2.1554381358431822
      vertex 43.101756898420355 2.4 2.1554381358431822
    endloop
  endfacet
  facet normal -0.8577286100002708 0 0.5141027441932237
    outer loop
      vertex 43.101756898420355 0 2.1554381358431822
      vertex 43.505370114786835 2.4 2.8288261053920185
      vertex 43.101756898420355 2.4 2.1554381358431822
    endloop
  endfacet
  facet normal -0.8577286100002708 1.1482448619060287e-17 0.5141027441932237
    outer loop
      vertex 43.101756898420355 0 2.1554381358431822
      vertex 43.505370114786835 0 2.8288261053920185
      vertex 43.505370114786835 2.4 2.8288261053920185
    endloop
  endfacet
  facet normal -0.9039892931234421 0 0.42755509343028464
    outer loop
      vertex 43.505370114786835 0 2.8288261053920185
      vertex 43.84103626009029 2.4 3.5385325410792814
      vertex 43.505370114786835 2.4 2.8288261053920185
    endloop
  endfacet
  facet normal -0.9039892931234421 -1.8554570196632726e-18 0.42755509343028464
    outer loop
      vertex 43.505370114786835 0 2.8288261053920185
      vertex 43.84103626009029 0 3.5385325410792814
      vertex 43.84103626009029 2.4 3.5385325410792814
    endloop
  endfacet
  facet normal -0.9415440651830224 0 0.3368898533922155
    outer loop
      vertex 43.84103626009029 0 3.5385325410792814
      vertex 44.105522685857665 2.4 4.277722581964301
      vertex 43.84103626009029 2.4 3.5385325410792814
    endloop
  endfacet
  facet normal -0.9415440651830224 -3.6690841749573734e-18 0.3368898533922155
    outer loop
      vertex 43.84103626009029 0 3.5385325410792814
      vertex 44.105522685857665 0 4.277722581964301
      vertex 44.105522685857665 2.4 4.277722581964301
    endloop
  endfacet
  facet normal -0.9700312531945434 -5.340869354326767e-19 0.24298017990326626
    outer loop
      vertex 44.105522685857665 0 4.277722581964301
      vertex 44.29628224322584 0 5.039277423870974
      vertex 44.29628224322584 2.4 5.039277423870974
    endloop
  endfacet
  facet normal -0.9700312531945434 0 0.24298017990326626
    outer loop
      vertex 44.105522685857665 0 4.277722581964301
      vertex 44.29628224322584 2.4 5.039277423870974
      vertex 44.105522685857665 2.4 4.277722581964301
    endloop
  endfacet
  facet normal -0.9891765099647805 0 0.14673047445536477
    outer loop
      vertex 44.29628224322584 0 5.039277423870974
      vertex 44.41147781337757 2.4 5.815862877363514
      vertex 44.29628224322584 2.4 5.039277423870974
    endloop
  endfacet
  facet normal -0.9891765099647805 1.799146757981797e-18 0.14673047445536477
    outer loop
      vertex 44.29628224322584 0 5.039277423870974
      vertex 44.41147781337757 0 5.815862877363514
      vertex 44.41147781337757 2.4 5.815862877363514
    endloop
  endfacet
  facet normal -0.9987954562051725 0 0.049067674327415295
    outer loop
      vertex 44.41147781337757 0 5.815862877363514
      vertex 44.449999999999996 2.4 6.6
      vertex 44.41147781337757 2.4 5.815862877363514
    endloop
  endfacet
  facet normal -0.9987954562051725 6.064150823416474e-19 0.049067674327415295
    outer loop
      vertex 44.41147781337757 0 5.815862877363514
      vertex 44.449999999999996 0 6.6
      vertex 44.449999999999996 2.4 6.6
    endloop
  endfacet
  facet normal 0.5956993044924309 -3.7622784586606634e-18 0.8032075314806467
    outer loop
      vertex 31.37485372669083 96.49 0.4159163730981037
      vertex 31.935652036877133 96.49 0
      vertex 31.935652036877133 98.89999999999999 0
    endloop
  endfacet
  facet normal 0.5956993044924309 0 0.8032075314806467
    outer loop
      vertex 31.37485372669083 96.49 0.4159163730981037
      vertex 31.935652036877133 98.89999999999999 0
      vertex 31.37485372669083 98.89999999999999 0.4159163730981037
    endloop
  endfacet
  facet normal 0.6715589548470197 0 0.7409511253549579
    outer loop
      vertex 31.37485372669083 96.49 0.4159163730981037
      vertex 31.37485372669083 98.89999999999999 0.4159163730981037
      vertex 30.793145750507616 96.49 0.9431457505076191
    endloop
  endfacet
  facet normal 0.6715589548470197 -4.686232630432495e-18 0.7409511253549579
    outer loop
      vertex 31.37485372669083 98.89999999999999 0.4159163730981037
      vertex 30.793145750507616 98.89999999999999 0.9431457505076191
      vertex 30.793145750507616 96.49 0.9431457505076191
    endloop
  endfacet
  facet normal 0.7409511253549595 0 0.671558954847018
    outer loop
      vertex 30.793145750507616 96.49 0.9431457505076191
      vertex 30.793145750507616 98.89999999999999 0.9431457505076191
      vertex 30.2659163730981 96.49 1.5248537266908357
    endloop
  endfacet
  facet normal 0 1 0
    outer loop
      vertex 31.37485372669083 96.49 0.4159163730981037
      vertex 40.96434796312286 96.49 0
      vertex 31.935652036877133 96.49 0
    endloop
  endfacet
  facet normal 0 1 0
    outer loop
      vertex 31.37485372669083 96.49 0.4159163730981037
      vertex 30.793145750507616 96.49 0.9431457505076191
      vertex 42.10685424949238 96.49 0.9431457505076191
    endloop
  endfacet
  facet normal 0.7409511253549595 -1.3693652764523192e-17 0.671558954847018
    outer loop
      vertex 30.793145750507616 98.89999999999999 0.9431457505076191
      vertex 30.2659163730981 98.89999999999999 1.5248537266908357
      vertex 30.2659163730981 96.49 1.5248537266908357
    endloop
  endfacet
  facet normal 0.8032075314806366 1.5324177243489403e-16 0.5956993044924446
    outer loop
      vertex 30.2659163730981 96.49 1.5248537266908357
      vertex 30.21018409844805 96.5 1.6
      vertex 30.21018409844805 96.49 1.6
    endloop
  endfacet
  facet normal 0.8032075314806365 0 0.5956993044924447
    outer loop
      vertex 30.2659163730981 96.49 1.5248537266908357
      vertex 30.2659163730981 98.89999999999999 1.5248537266908357
      vertex 30.21018409844805 96.5 1.6
    endloop
  endfacet
  facet normal 0.8032075314806452 -5.618722240657025e-16 0.595699304492433
    outer loop
      vertex 30.21018409844805 96.5 1.6
      vertex 30.2659163730981 98.89999999999999 1.5248537266908357
      vertex 29.798243101579633 96.5 2.1554381358431822
    endloop
  endfacet
  facet normal 0.8032075314806442 -1.3411329051476555e-17 0.5956993044924344
    outer loop
      vertex 30.2659163730981 98.89999999999999 1.5248537266908357
      vertex 29.798243101579633 98.89999999999999 2.1554381358431822
      vertex 29.798243101579633 96.5 2.1554381358431822
    endloop
  endfacet
  facet normal 0.8577286100002728 0 0.5141027441932203
    outer loop
      vertex 29.798243101579633 96.5 2.1554381358431822
      vertex 29.798243101579633 98.89999999999999 2.1554381358431822
      vertex 29.394629885213156 96.5 2.8288261053920185
    endloop
  endfacet
  facet normal 0 1 0
    outer loop
      vertex 30.793145750507616 96.49 0.9431457505076191
      vertex 30.2659163730981 96.49 1.5248537266908357
      vertex 42.63408362690189 96.49 1.5248537266908357
    endloop
  endfacet
  facet normal 0 1 0
    outer loop
      vertex 30.2659163730981 96.49 1.5248537266908357
      vertex 30.21018409844805 96.49 1.6
      vertex 42.63408362690189 96.49 1.5248537266908357
    endloop
  endfacet
  facet normal 0.8577286100002728 -8.629698732128197e-18 0.5141027441932203
    outer loop
      vertex 29.798243101579633 98.89999999999999 2.1554381358431822
      vertex 29.394629885213156 98.89999999999999 2.8288261053920185
      vertex 29.394629885213156 96.5 2.8288261053920185
    endloop
  endfacet
  facet normal 0.9039892931234421 0 0.4275550934302846
    outer loop
      vertex 29.394629885213156 96.5 2.8288261053920185
      vertex 29.394629885213156 98.89999999999999 2.8288261053920185
      vertex 29.0589637399097 96.5 3.5385325410792814
    endloop
  endfacet
  facet normal 0.9039892931234421 1.855457019663279e-18 0.4275550934302846
    outer loop
      vertex 29.394629885213156 98.89999999999999 2.8288261053920185
      vertex 29.0589637399097 98.89999999999999 3.5385325410792814
      vertex 29.0589637399097 96.5 3.5385325410792814
    endloop
  endfacet
  facet normal 0.9415440651830224 0 0.33688985339221544
    outer loop
      vertex 29.0589637399097 96.5 3.5385325410792814
      vertex 29.0589637399097 98.89999999999999 3.5385325410792814
      vertex 28.794477314142327 96.5 4.277722581964301
    endloop
  endfacet
  facet normal 0.9415440651830224 3.6690841749573865e-18 0.33688985339221544
    outer loop
      vertex 29.0589637399097 98.89999999999999 3.5385325410792814
      vertex 28.794477314142327 98.89999999999999 4.277722581964301
      vertex 28.794477314142327 96.5 4.277722581964301
    endloop
  endfacet
  facet normal 0.9700312531945434 0 0.24298017990326626
    outer loop
      vertex 28.794477314142327 96.5 4.277722581964301
      vertex 28.794477314142327 98.89999999999999 4.277722581964301
      vertex 28.603717756774152 96.5 5.039277423870974
    endloop
  endfacet
  facet normal 0.9700312531945434 5.340869354326785e-19 0.24298017990326626
    outer loop
      vertex 28.794477314142327 98.89999999999999 4.277722581964301
      vertex 28.603717756774152 98.89999999999999 5.039277423870974
      vertex 28.603717756774152 96.5 5.039277423870974
    endloop
  endfacet
  facet normal 0.9891765099647806 0 0.14673047445536477
    outer loop
      vertex 28.603717756774152 96.5 5.039277423870974
      vertex 28.603717756774152 98.89999999999999 5.039277423870974
      vertex 28.48852218662242 96.5 5.815862877363514
    endloop
  endfacet
  facet normal 0.9891765099647806 -1.799146757981803e-18 0.14673047445536477
    outer loop
      vertex 28.603717756774152 98.89999999999999 5.039277423870974
      vertex 28.48852218662242 98.89999999999999 5.815862877363514
      vertex 28.48852218662242 96.5 5.815862877363514
    endloop
  endfacet
  facet normal 0.9987954562051725 0 0.049067674327415295
    outer loop
      vertex 28.48852218662242 96.5 5.815862877363514
      vertex 28.48852218662242 98.89999999999999 5.815862877363514
      vertex 28.449999999999996 96.5 6.6
    endloop
  endfacet
  facet normal 0.9987954562051725 -6.064150823416496e-19 0.049067674327415295
    outer loop
      vertex 28.48852218662242 98.89999999999999 5.815862877363514
      vertex 28.449999999999996 98.89999999999999 6.6
      vertex 28.449999999999996 96.5 6.6
    endloop
  endfacet
  facet normal 0 1 0
    outer loop
      vertex 31.37485372669083 96.49 0.4159163730981037
      vertex 41.52514627330916 96.49 0.4159163730981037
      vertex 40.96434796312286 96.49 0
    endloop
  endfacet
  facet normal 0 1 0
    outer loop
      vertex 31.37485372669083 96.49 0.4159163730981037
      vertex 42.10685424949238 96.49 0.9431457505076191
      vertex 41.52514627330916 96.49 0.4159163730981037
    endloop
  endfacet
  facet normal 0 1 0
    outer loop
      vertex 30.793145750507616 96.49 0.9431457505076191
      vertex 42.63408362690189 96.49 1.5248537266908357
      vertex 42.10685424949238 96.49 0.9431457505076191
    endloop
  endfacet
  facet normal -0.5956993044924334 0 0.8032075314806448
    outer loop
      vertex 40.96434796312286 96.49 0
      vertex 41.52514627330916 96.49 0.4159163730981037
      vertex 40.96434796312286 98.89999999999999 0
    endloop
  endfacet
  facet normal -0.5956993044924334 -1.519326367782234e-19 0.8032075314806448
    outer loop
      vertex 40.96434796312286 98.89999999999999 0
      vertex 41.52514627330916 96.49 0.4159163730981037
      vertex 41.52514627330916 98.89999999999999 0.4159163730981037
    endloop
  endfacet
  facet normal -0.6715589548470173 0 0.74095112535496
    outer loop
      vertex 41.52514627330916 96.49 0.4159163730981037
      vertex 42.10685424949238 98.89999999999999 0.9431457505076191
      vertex 41.52514627330916 98.89999999999999 0.4159163730981037
    endloop
  endfacet
  facet normal -0.6715589548470173 -2.863316526672801e-18 0.74095112535496
    outer loop
      vertex 41.52514627330916 96.49 0.4159163730981037
      vertex 42.10685424949238 96.49 0.9431457505076191
      vertex 42.10685424949238 98.89999999999999 0.9431457505076191
    endloop
  endfacet
  facet normal -0.7409511253549618 0 0.6715589548470156
    outer loop
      vertex 42.10685424949238 96.49 0.9431457505076191
      vertex 42.63408362690189 98.89999999999999 1.5248537266908357
      vertex 42.10685424949238 98.89999999999999 0.9431457505076191
    endloop
  endfacet
  facet normal 0 1 0
    outer loop
      vertex 30.21018409844805 96.49 1.6
      vertex 42.68981590155194 96.49 1.6
      vertex 42.63408362690189 96.49 1.5248537266908357
    endloop
  endfacet
  facet normal -0.7409511253549618 6.965875109403565e-18 0.6715589548470156
    outer loop
      vertex 42.10685424949238 96.49 0.9431457505076191
      vertex 42.63408362690189 96.49 1.5248537266908357
      vertex 42.63408362690189 98.89999999999999 1.5248537266908357
    endloop
  endfacet
  facet normal -0.8032075314806547 3.2977158065789353e-17 0.59569930449242
    outer loop
      vertex 42.63408362690189 96.49 1.5248537266908357
      vertex 42.68981590155194 96.49 1.6
      vertex 42.68981590155194 96.5 1.6
    endloop
  endfacet
  facet normal -0.8032075314806547 0 0.59569930449242
    outer loop
      vertex 42.63408362690189 96.49 1.5248537266908357
      vertex 42.68981590155194 96.5 1.6
      vertex 42.63408362690189 98.89999999999999 1.5248537266908357
    endloop
  endfacet
  facet normal -0.8032075314806463 5.525341330813354e-16 0.5956993044924314
    outer loop
      vertex 42.68981590155194 96.5 1.6
      vertex 43.101756898420355 98.89999999999999 2.1554381358431822
      vertex 42.63408362690189 98.89999999999999 1.5248537266908357
    endloop
  endfacet
  facet normal -0.8032075314806452 -3.850813467446417e-18 0.595699304492433
    outer loop
      vertex 42.68981590155194 96.5 1.6
      vertex 43.101756898420355 96.5 2.1554381358431822
      vertex 43.101756898420355 98.89999999999999 2.1554381358431822
    endloop
  endfacet
  facet normal -0.8577286100002709 0 0.5141027441932237
    outer loop
      vertex 43.101756898420355 96.5 2.1554381358431822
      vertex 43.505370114786835 98.89999999999999 2.8288261053920185
      vertex 43.101756898420355 98.89999999999999 2.1554381358431822
    endloop
  endfacet
  facet normal -0.8577286100002709 1.1482448619060327e-17 0.5141027441932237
    outer loop
      vertex 43.101756898420355 96.5 2.1554381358431822
      vertex 43.505370114786835 96.5 2.8288261053920185
      vertex 43.505370114786835 98.89999999999999 2.8288261053920185
    endloop
  endfacet
  facet normal -0.9039892931234421 0 0.4275550934302846
    outer loop
      vertex 43.505370114786835 96.5 2.8288261053920185
      vertex 43.84103626009029 98.89999999999999 3.5385325410792814
      vertex 43.505370114786835 98.89999999999999 2.8288261053920185
    endloop
  endfacet
  facet normal -0.9039892931234421 -1.855457019663279e-18 0.4275550934302846
    outer loop
      vertex 43.505370114786835 96.5 2.8288261053920185
      vertex 43.84103626009029 96.5 3.5385325410792814
      vertex 43.84103626009029 98.89999999999999 3.5385325410792814
    endloop
  endfacet
  facet normal -0.9415440651830224 0 0.33688985339221544
    outer loop
      vertex 43.84103626009029 96.5 3.5385325410792814
      vertex 44.105522685857665 98.89999999999999 4.277722581964301
      vertex 43.84103626009029 98.89999999999999 3.5385325410792814
    endloop
  endfacet
  facet normal -0.9415440651830224 -3.6690841749573865e-18 0.33688985339221544
    outer loop
      vertex 43.84103626009029 96.5 3.5385325410792814
      vertex 44.105522685857665 96.5 4.277722581964301
      vertex 44.105522685857665 98.89999999999999 4.277722581964301
    endloop
  endfacet
  facet normal -0.9700312531945434 -5.340869354326785e-19 0.24298017990326626
    outer loop
      vertex 44.105522685857665 96.5 4.277722581964301
      vertex 44.29628224322584 96.5 5.039277423870974
      vertex 44.29628224322584 98.89999999999999 5.039277423870974
    endloop
  endfacet
  facet normal -0.9700312531945434 0 0.24298017990326626
    outer loop
      vertex 44.105522685857665 96.5 4.277722581964301
      vertex 44.29628224322584 98.89999999999999 5.039277423870974
      vertex 44.105522685857665 98.89999999999999 4.277722581964301
    endloop
  endfacet
  facet normal -0.9891765099647806 0 0.14673047445536477
    outer loop
      vertex 44.29628224322584 96.5 5.039277423870974
      vertex 44.41147781337757 98.89999999999999 5.815862877363514
      vertex 44.29628224322584 98.89999999999999 5.039277423870974
    endloop
  endfacet
  facet normal -0.9891765099647806 1.799146757981803e-18 0.14673047445536477
    outer loop
      vertex 44.29628224322584 96.5 5.039277423870974
      vertex 44.41147781337757 96.5 5.815862877363514
      vertex 44.41147781337757 98.89999999999999 5.815862877363514
    endloop
  endfacet
  facet normal -0.9987954562051725 0 0.049067674327415295
    outer loop
      vertex 44.41147781337757 96.5 5.815862877363514
      vertex 44.449999999999996 98.89999999999999 6.6
      vertex 44.41147781337757 98.89999999999999 5.815862877363514
    endloop
  endfacet
  facet normal -0.9987954562051725 6.064150823416496e-19 0.049067674327415295
    outer loop
      vertex 44.41147781337757 96.5 5.815862877363514
      vertex 44.449999999999996 96.5 6.6
      vertex 44.449999999999996 98.89999999999999 6.6
    endloop
  endfacet
  facet normal -1 0 0
    outer loop
      vertex 0 0 0
      vertex 0 0 6.6
      vertex 0 35.05 6.6
    endloop
  endfacet
  facet normal -1 0 0
    outer loop
      vertex 0 0 0
      vertex 0 35.05 6.6
      vertex 0 37.05 6.6
    endloop
  endfacet
  facet normal 0 -1 0
    outer loop
      vertex 0 0 0
      vertex 28.449999999999996 0 6.6
      vertex 0 0 6.6
    endloop
  endfacet
  facet normal -1 0 0
    outer loop
      vertex 0 0 0
      vertex 0 37.05 6.6
      vertex 0 61.849999999999994 6.6
    endloop
  endfacet
  facet normal -1 0 0
    outer loop
      vertex 0 0 0
      vertex 0 61.849999999999994 6.6
      vertex 0 63.849999999999994 6.6
    endloop
  endfacet
  facet normal 0 -1 0
    outer loop
      vertex 0 0 0
      vertex 31.935652036877133 0 0
      vertex 31.37485372669083 0 0.4159163730981037
    endloop
  endfacet
  facet normal 0 0 -1
    outer loop
      vertex 0 0 0
      vertex 31.935652036877133 2.42 0
      vertex 31.935652036877133 0 0
    endloop
  endfacet
  facet normal 0 -1 0
    outer loop
      vertex 0 0 0
      vertex 31.37485372669083 0 0.4159163730981037
      vertex 30.793145750507616 0 0.9431457505076191
    endloop
  endfacet
  facet normal 0 -1 0
    outer loop
      vertex 0 0 0
      vertex 30.793145750507616 0 0.9431457505076191
      vertex 30.2659163730981 0 1.5248537266908357
    endloop
  endfacet
  facet normal 0 -1 0
    outer loop
      vertex 0 0 0
      vertex 30.2659163730981 0 1.5248537266908357
      vertex 29.798243101579633 0 2.1554381358431822
    endloop
  endfacet
  facet normal 0 -1 0
    outer loop
      vertex 0 0 0
      vertex 29.798243101579633 0 2.1554381358431822
      vertex 29.394629885213156 0 2.8288261053920185
    endloop
  endfacet
  facet normal 0 -1 0
    outer loop
      vertex 0 0 0
      vertex 29.394629885213156 0 2.8288261053920185
      vertex 29.0589637399097 0 3.5385325410792814
    endloop
  endfacet
  facet normal 0 -1 0
    outer loop
      vertex 0 0 0
      vertex 29.0589637399097 0 3.5385325410792814
      vertex 28.794477314142327 0 4.277722581964301
    endloop
  endfacet
  facet normal 0 -1 0
    outer loop
      vertex 0 0 0
      vertex 28.794477314142327 0 4.277722581964301
      vertex 28.603717756774152 0 5.039277423870974
    endloop
  endfacet
  facet normal 0 -1 0
    outer loop
      vertex 0 0 0
      vertex 28.603717756774152 0 5.039277423870974
      vertex 28.48852218662242 0 5.815862877363514
    endloop
  endfacet
  facet normal 0 -1 0
    outer loop
      vertex 0 0 0
      vertex 28.48852218662242 0 5.815862877363514
      vertex 28.449999999999996 0 6.6
    endloop
  endfacet
  facet normal 0 0 -1
    outer loop
      vertex 0 0 0
      vertex 72.89999999999999 98.89999999999999 0
      vertex 31.935652036877133 2.42 0
    endloop
  endfacet
  facet normal 0 0 1
    outer loop
      vertex 0 0 6.6
      vertex 2.4 2.4 6.6
      vertex 0 35.05 6.6
    endloop
  endfacet
  facet normal 0 0 1
    outer loop
      vertex 2.4 2.4 6.6
      vertex 2.4 35.05 6.6
      vertex 0 35.05 6.6
    endloop
  endfacet
  facet normal 0 0 1
    outer loop
      vertex 0 0 6.6
      vertex 28.449999999999996 0 6.6
      vertex 2.4 2.4 6.6
    endloop
  endfacet
  facet normal 0 0 1
    outer loop
      vertex 0 37.05 6.6
      vertex 2.4 37.05 6.6
      vertex 0 61.849999999999994 6.6
    endloop
  endfacet
  facet normal 0 0 1
    outer loop
      vertex 2.4 2.4 6.6
      vertex 28.449999999999996 0 6.6
      vertex 28.449999999999996 2.4 6.6
    endloop
  endfacet
  facet normal -1 0 0
    outer loop
      vertex 0 0 0
      vertex 0 98.89999999999999 6.6
      vertex 0 98.89999999999999 0
    endloop
  endfacet
  facet normal 0 0 -1
    outer loop
      vertex 0 0 0
      vertex 0 98.89999999999999 0
      vertex 31.935652036877133 96.49 0
    endloop
  endfacet
  facet normal -1 0 0
    outer loop
      vertex 0 0 0
      vertex 0 63.849999999999994 6.6
      vertex 0 98.89999999999999 6.6
    endloop
  endfacet
  facet normal 0 1 0
    outer loop
      vertex 0 98.89999999999999 0
      vertex 0 98.89999999999999 6.6
      vertex 29.0589637399097 98.89999999999999 3.5385325410792814
    endloop
  endfacet
  facet normal 0 0 -1
    outer loop
      vertex 0 0 0
      vertex 31.935652036877133 96.49 0
      vertex 40.96434796312286 96.49 0
    endloop
  endfacet
  facet normal 0 0 -1
    outer loop
      vertex 0 98.89999999999999 0
      vertex 31.935652036877133 98.89999999999999 0
      vertex 31.935652036877133 96.49 0
    endloop
  endfacet
  facet normal 0 1 0
    outer loop
      vertex 0 98.89999999999999 0
      vertex 31.37485372669083 98.89999999999999 0.4159163730981037
      vertex 31.935652036877133 98.89999999999999 0
    endloop
  endfacet
  facet normal 0 1 0
    outer loop
      vertex 0 98.89999999999999 0
      vertex 30.793145750507616 98.89999999999999 0.9431457505076191
      vertex 31.37485372669083 98.89999999999999 0.4159163730981037
    endloop
  endfacet
  facet normal 0 1 0
    outer loop
      vertex 0 98.89999999999999 0
      vertex 30.2659163730981 98.89999999999999 1.5248537266908357
      vertex 30.793145750507616 98.89999999999999 0.9431457505076191
    endloop
  endfacet
  facet normal 0 1 0
    outer loop
      vertex 0 98.89999999999999 0
      vertex 29.798243101579633 98.89999999999999 2.1554381358431822
      vertex 30.2659163730981 98.89999999999999 1.5248537266908357
    endloop
  endfacet
  facet normal 0 1 0
    outer loop
      vertex 0 98.89999999999999 0
      vertex 29.394629885213156 98.89999999999999 2.8288261053920185
      vertex 29.798243101579633 98.89999999999999 2.1554381358431822
    endloop
  endfacet
  facet normal 0 1 0
    outer loop
      vertex 0 98.89999999999999 0
      vertex 29.0589637399097 98.89999999999999 3.5385325410792814
      vertex 29.394629885213156 98.89999999999999 2.8288261053920185
    endloop
  endfacet
  facet normal 0 0 1
    outer loop
      vertex 2.4 37.05 6.6
      vertex 2.4 61.849999999999994 6.6
      vertex 0 61.849999999999994 6.6
    endloop
  endfacet
  facet normal 0 0 1
    outer loop
      vertex 2.4 96.5 6.6
      vertex 0 63.849999999999994 6.6
      vertex 2.4 63.849999999999994 6.6
    endloop
  endfacet
  facet normal 0 0 1
    outer loop
      vertex 0 98.89999999999999 6.6
      vertex 0 63.849999999999994 6.6
      vertex 2.4 96.5 6.6
    endloop
  endfacet
  facet normal 0 0 1
    outer loop
      vertex 0 98.89999999999999 6.6
      vertex 2.4 96.5 6.6
      vertex 28.449999999999996 96.5 6.6
    endloop
  endfacet
  facet normal 0 1 0
    outer loop
      vertex 0 98.89999999999999 6.6
      vertex 28.794477314142327 98.89999999999999 4.277722581964301
      vertex 29.0589637399097 98.89999999999999 3.5385325410792814
    endloop
  endfacet
  facet normal 0 1 0
    outer loop
      vertex 0 98.89999999999999 6.6
      vertex 28.603717756774152 98.89999999999999 5.039277423870974
      vertex 28.794477314142327 98.89999999999999 4.277722581964301
    endloop
  endfacet
  facet normal 0 1 0
    outer loop
      vertex 0 98.89999999999999 6.6
      vertex 28.48852218662242 98.89999999999999 5.815862877363514
      vertex 28.603717756774152 98.89999999999999 5.039277423870974
    endloop
  endfacet
  facet normal 0 1 0
    outer loop
      vertex 0 98.89999999999999 6.6
      vertex 28.449999999999996 98.89999999999999 6.6
      vertex 28.48852218662242 98.89999999999999 5.815862877363514
    endloop
  endfacet
  facet normal 0 0 1
    outer loop
      vertex 0 98.89999999999999 6.6
      vertex 28.449999999999996 96.5 6.6
      vertex 28.449999999999996 98.89999999999999 6.6
    endloop
  endfacet
  facet normal 0 -1 0
    outer loop
      vertex 40.96434796312286 0 0
      vertex 72.89999999999999 0 0
      vertex 41.52514627330916 0 0.4159163730981037
    endloop
  endfacet
  facet normal 0 0 -1
    outer loop
      vertex 40.96434796312286 0 0
      vertex 40.96434796312286 2.42 0
      vertex 72.89999999999999 0 0
    endloop
  endfacet
  facet normal 0 -1 0
    outer loop
      vertex 41.52514627330916 0 0.4159163730981037
      vertex 72.89999999999999 0 0
      vertex 42.10685424949238 0 0.9431457505076191
    endloop
  endfacet
  facet normal 0 -1 0
    outer loop
      vertex 42.10685424949238 0 0.9431457505076191
      vertex 72.89999999999999 0 0
      vertex 42.63408362690189 0 1.5248537266908357
    endloop
  endfacet
  facet normal 0 -1 0
    outer loop
      vertex 42.63408362690189 0 1.5248537266908357
      vertex 72.89999999999999 0 0
      vertex 43.101756898420355 0 2.1554381358431822
    endloop
  endfacet
  facet normal 0 -1 0
    outer loop
      vertex 43.101756898420355 0 2.1554381358431822
      vertex 72.89999999999999 0 0
      vertex 43.505370114786835 0 2.8288261053920185
    endloop
  endfacet
  facet normal 0 -1 0
    outer loop
      vertex 43.505370114786835 0 2.8288261053920185
      vertex 72.89999999999999 0 0
      vertex 43.84103626009029 0 3.5385325410792814
    endloop
  endfacet
  facet normal 0 0 -1
    outer loop
      vertex 31.935652036877133 2.42 0
      vertex 72.89999999999999 98.89999999999999 0
      vertex 40.96434796312286 2.42 0
    endloop
  endfacet
  facet normal 0 -1 0
    outer loop
      vertex 72.89999999999999 0 0
      vertex 72.89999999999999 0 6.6
      vertex 43.84103626009029 0 3.5385325410792814
    endloop
  endfacet
  facet normal 0 0 -1
    outer loop
      vertex 40.96434796312286 2.42 0
      vertex 72.89999999999999 98.89999999999999 0
      vertex 72.89999999999999 0 0
    endloop
  endfacet
  facet normal 1 0 0
    outer loop
      vertex 72.89999999999999 0 0
      vertex 72.89999999999999 98.89999999999999 0
      vertex 72.89999999999999 0 6.6
    endloop
  endfacet
  facet normal 1 0 0
    outer loop
      vertex 72.89999999999999 0 6.6
      vertex 72.89999999999999 98.89999999999999 0
      vertex 72.89999999999999 35.05 6.6
    endloop
  endfacet
  facet normal 0 -1 0
    outer loop
      vertex 43.84103626009029 0 3.5385325410792814
      vertex 72.89999999999999 0 6.6
      vertex 44.105522685857665 0 4.277722581964301
    endloop
  endfacet
  facet normal 0 -1 0
    outer loop
      vertex 44.105522685857665 0 4.277722581964301
      vertex 72.89999999999999 0 6.6
      vertex 44.29628224322584 0 5.039277423870974
    endloop
  endfacet
  facet normal 0 -1 0
    outer loop
      vertex 44.29628224322584 0 5.039277423870974
      vertex 72.89999999999999 0 6.6
      vertex 44.41147781337757 0 5.815862877363514
    endloop
  endfacet
  facet normal 0 -1 0
    outer loop
      vertex 44.41147781337757 0 5.815862877363514
      vertex 72.89999999999999 0 6.6
      vertex 44.449999999999996 0 6.6
    endloop
  endfacet
  facet normal 0 0 1
    outer loop
      vertex 44.449999999999996 0 6.6
      vertex 72.89999999999999 0 6.6
      vertex 44.449999999999996 2.4 6.6
    endloop
  endfacet
  facet normal 0 0 1
    outer loop
      vertex 44.449999999999996 2.4 6.6
      vertex 72.89999999999999 0 6.6
      vertex 70.5 2.4 6.6
    endloop
  endfacet
  facet normal 0 0 1
    outer loop
      vertex 70.5 2.4 6.6
      vertex 72.89999999999999 0 6.6
      vertex 72.89999999999999 35.05 6.6
    endloop
  endfacet
  facet normal 0 0 1
    outer loop
      vertex 70.5 2.4 6.6
      vertex 72.89999999999999 35.05 6.6
      vertex 70.5 35.05 6.6
    endloop
  endfacet
  facet normal 0 0 1
    outer loop
      vertex 70.5 37.05 6.6
      vertex 72.9 37.05 6.6
      vertex 70.5 61.849999999999994 6.6
    endloop
  endfacet
  facet normal 0 0 -1
    outer loop
      vertex 0 0 0
      vertex 40.96434796312286 96.49 0
      vertex 72.89999999999999 98.89999999999999 0
    endloop
  endfacet
  facet normal 0 0 -1
    outer loop
      vertex 40.96434796312286 96.49 0
      vertex 40.96434796312286 98.89999999999999 0
      vertex 72.89999999999999 98.89999999999999 0
    endloop
  endfacet
  facet normal 0 1 0
    outer loop
      vertex 40.96434796312286 98.89999999999999 0
      vertex 41.52514627330916 98.89999999999999 0.4159163730981037
      vertex 72.89999999999999 98.89999999999999 0
    endloop
  endfacet
  facet normal 0 1 0
    outer loop
      vertex 41.52514627330916 98.89999999999999 0.4159163730981037
      vertex 42.10685424949238 98.89999999999999 0.9431457505076191
      vertex 72.89999999999999 98.89999999999999 0
    endloop
  endfacet
  facet normal 0 1 0
    outer loop
      vertex 42.10685424949238 98.89999999999999 0.9431457505076191
      vertex 42.63408362690189 98.89999999999999 1.5248537266908357
      vertex 72.89999999999999 98.89999999999999 0
    endloop
  endfacet
  facet normal 0 1 0
    outer loop
      vertex 42.63408362690189 98.89999999999999 1.5248537266908357
      vertex 43.101756898420355 98.89999999999999 2.1554381358431822
      vertex 72.89999999999999 98.89999999999999 0
    endloop
  endfacet
  facet normal 0 1 0
    outer loop
      vertex 43.101756898420355 98.89999999999999 2.1554381358431822
      vertex 43.505370114786835 98.89999999999999 2.8288261053920185
      vertex 72.89999999999999 98.89999999999999 0
    endloop
  endfacet
  facet normal 0 1 0
    outer loop
      vertex 43.505370114786835 98.89999999999999 2.8288261053920185
      vertex 43.84103626009029 98.89999999999999 3.5385325410792814
      vertex 72.89999999999999 98.89999999999999 0
    endloop
  endfacet
  facet normal 0 1 0
    outer loop
      vertex 72.89999999999999 98.89999999999999 0
      vertex 43.84103626009029 98.89999999999999 3.5385325410792814
      vertex 44.105522685857665 98.89999999999999 4.277722581964301
    endloop
  endfacet
  facet normal 0 1 0
    outer loop
      vertex 72.89999999999999 98.89999999999999 0
      vertex 44.105522685857665 98.89999999999999 4.277722581964301
      vertex 44.29628224322584 98.89999999999999 5.039277423870974
    endloop
  endfacet
  facet normal 0 1 0
    outer loop
      vertex 72.89999999999999 98.89999999999999 0
      vertex 44.29628224322584 98.89999999999999 5.039277423870974
      vertex 44.41147781337757 98.89999999999999 5.815862877363514
    endloop
  endfacet
  facet normal 0 1 0
    outer loop
      vertex 72.89999999999999 98.89999999999999 0
      vertex 44.41147781337757 98.89999999999999 5.815862877363514
      vertex 44.449999999999996 98.89999999999999 6.6
    endloop
  endfacet
  facet normal 1 -7.105427357600987e-15 -6.87396267852762e-14
    outer loop
      vertex 72.89999999999999 98.89999999999999 0
      vertex 72.9 37.05 6.6
      vertex 72.89999999999999 35.05 6.6
    endloop
  endfacet
  facet normal 1 5.730183352904036e-16 3.2167165640165833e-15
    outer loop
      vertex 72.89999999999999 98.89999999999999 0
      vertex 72.89999999999999 61.849999999999994 6.6
      vertex 72.9 37.05 6.6
    endloop
  endfacet
  facet normal 0 1 0
    outer loop
      vertex 72.89999999999999 98.89999999999999 0
      vertex 44.449999999999996 98.89999999999999 6.6
      vertex 72.89999999999999 98.89999999999999 6.6
    endloop
  endfacet
  facet normal 1 -7.105427357600999e-15 -3.988728539380561e-14
    outer loop
      vertex 72.89999999999999 98.89999999999999 0
      vertex 72.9 63.849999999999994 6.6
      vertex 72.89999999999999 61.849999999999994 6.6
    endloop
  endfacet
  facet normal 1 4.0544521298721843e-16 0
    outer loop
      vertex 72.89999999999999 98.89999999999999 0
      vertex 72.89999999999999 98.89999999999999 6.6
      vertex 72.9 63.849999999999994 6.6
    endloop
  endfacet
  facet normal 0 0 1
    outer loop
      vertex 44.449999999999996 96.5 6.6
      vertex 70.5 96.5 6.6
      vertex 44.449999999999996 98.89999999999999 6.6
    endloop
  endfacet
  facet normal 0 0 1
    outer loop
      vertex 72.9 37.05 6.6
      vertex 72.89999999999999 61.849999999999994 6.6
      vertex 70.5 61.849999999999994 6.6
    endloop
  endfacet
  facet normal 0 0 1
    outer loop
      vertex 44.449999999999996 98.89999999999999 6.6
      vertex 70.5 96.5 6.6
      vertex 72.89999999999999 98.89999999999999 6.6
    endloop
  endfacet
  facet normal 0 0 1
    outer loop
      vertex 70.5 96.5 6.6
      vertex 70.5 63.849999999999994 6.6
      vertex 72.9 63.849999999999994 6.6
    endloop
  endfacet
  facet normal 0 0 1
    outer loop
      vertex 70.5 96.5 6.6
      vertex 72.9 63.849999999999994 6.6
      vertex 72.89999999999999 98.89999999999999 6.6
    endloop
  endfacet
  facet normal 0 0 1
    outer loop
      vertex 2.4 2.4 1.6
      vertex 30.21018409844805 2.4 1.6
      vertex 30.21018409844805 2.42 1.6
    endloop
  endfacet
  facet normal 0 1 0
    outer loop
      vertex 2.4 2.4 1.6
      vertex 29.798243101579633 2.4 2.1554381358431822
      vertex 30.21018409844805 2.4 1.6
    endloop
  endfacet
  facet normal 0 1 0
    outer loop
      vertex 2.4 2.4 1.6
      vertex 29.394629885213156 2.4 2.8288261053920185
      vertex 29.798243101579633 2.4 2.1554381358431822
    endloop
  endfacet
  facet normal 0 1 0
    outer loop
      vertex 2.4 2.4 1.6
      vertex 29.0589637399097 2.4 3.5385325410792814
      vertex 29.394629885213156 2.4 2.8288261053920185
    endloop
  endfacet
  facet normal 0 1 0
    outer loop
      vertex 2.4 2.4 1.6
      vertex 28.794477314142327 2.4 4.277722581964301
      vertex 29.0589637399097 2.4 3.5385325410792814
    endloop
  endfacet
  facet normal 0 1 0
    outer loop
      vertex 2.4 2.4 1.6
      vertex 28.603717756774152 2.4 5.039277423870974
      vertex 28.794477314142327 2.4 4.277722581964301
    endloop
  endfacet
  facet normal 0 1 0
    outer loop
      vertex 2.4 2.4 1.6
      vertex 28.48852218662242 2.4 5.815862877363514
      vertex 28.603717756774152 2.4 5.039277423870974
    endloop
  endfacet
  facet normal 0 1 0
    outer loop
      vertex 2.4 2.4 1.6
      vertex 28.449999999999996 2.4 6.6
      vertex 28.48852218662242 2.4 5.815862877363514
    endloop
  endfacet
  facet normal 0 0 1
    outer loop
      vertex 2.4 2.4 1.6
      vertex 30.21018409844805 2.42 1.6
      vertex 70.5 96.5 1.6
    endloop
  endfacet
  facet normal 1 0 0
    outer loop
      vertex 2.4 2.4 1.6
      vertex 2.4 35.05 6.6
      vertex 2.4 2.4 6.6
    endloop
  endfacet
  facet normal 0 1 0
    outer loop
      vertex 2.4 2.4 1.6
      vertex 2.4 2.4 6.6
      vertex 28.449999999999996 2.4 6.6
    endloop
  endfacet
  facet normal 1 0 0
    outer loop
      vertex 2.4 2.4 1.6
      vertex 2.4 37.05 6.6
      vertex 2.4 35.05 6.6
    endloop
  endfacet
  facet normal 1 0 0
    outer loop
      vertex 2.4 2.4 1.6
      vertex 2.4 61.849999999999994 6.6
      vertex 2.4 37.05 6.6
    endloop
  endfacet
  facet normal 1 0 0
    outer loop
      vertex 2.4 2.4 1.6
      vertex 2.4 63.849999999999994 6.6
      vertex 2.4 61.849999999999994 6.6
    endloop
  endfacet
  facet normal 0 0 1
    outer loop
      vertex 2.4 2.4 1.6
      vertex 30.21018409844805 96.49 1.6
      vertex 2.4 96.5 1.6
    endloop
  endfacet
  facet normal 1 0 0
    outer loop
      vertex 2.4 2.4 1.6
      vertex 2.4 96.5 1.6
      vertex 2.4 96.5 6.6
    endloop
  endfacet
  facet normal 0 0 1
    outer loop
      vertex 2.4 2.4 1.6
      vertex 42.68981590155194 96.49 1.6
      vertex 30.21018409844805 96.49 1.6
    endloop
  endfacet
  facet normal 0 0 1
    outer loop
      vertex 2.4 96.5 1.6
      vertex 30.21018409844805 96.49 1.6
      vertex 30.21018409844805 96.5 1.6
    endloop
  endfacet
  facet normal 0 -1 0
    outer loop
      vertex 2.4 96.5 1.6
      vertex 30.21018409844805 96.5 1.6
      vertex 29.798243101579633 96.5 2.1554381358431822
    endloop
  endfacet
  facet normal 0 -1 0
    outer loop
      vertex 2.4 96.5 1.6
      vertex 29.798243101579633 96.5 2.1554381358431822
      vertex 29.394629885213156 96.5 2.8288261053920185
    endloop
  endfacet
  facet normal 0 -1 0
    outer loop
      vertex 2.4 96.5 1.6
      vertex 29.394629885213156 96.5 2.8288261053920185
      vertex 29.0589637399097 96.5 3.5385325410792814
    endloop
  endfacet
  facet normal 0 -1 0
    outer loop
      vertex 2.4 96.5 1.6
      vertex 29.0589637399097 96.5 3.5385325410792814
      vertex 28.794477314142327 96.5 4.277722581964301
    endloop
  endfacet
  facet normal 0 -1 0
    outer loop
      vertex 2.4 96.5 1.6
      vertex 28.794477314142327 96.5 4.277722581964301
      vertex 28.603717756774152 96.5 5.039277423870974
    endloop
  endfacet
  facet normal 0 -1 0
    outer loop
      vertex 2.4 96.5 1.6
      vertex 28.603717756774152 96.5 5.039277423870974
      vertex 28.48852218662242 96.5 5.815862877363514
    endloop
  endfacet
  facet normal 0 -1 0
    outer loop
      vertex 2.4 96.5 1.6
      vertex 28.48852218662242 96.5 5.815862877363514
      vertex 28.449999999999996 96.5 6.6
    endloop
  endfacet
  facet normal 1 0 0
    outer loop
      vertex 2.4 2.4 1.6
      vertex 2.4 96.5 6.6
      vertex 2.4 63.849999999999994 6.6
    endloop
  endfacet
  facet normal 0 -1 0
    outer loop
      vertex 2.4 96.5 1.6
      vertex 28.449999999999996 96.5 6.6
      vertex 2.4 96.5 6.6
    endloop
  endfacet
  facet normal 0 0 1
    outer loop
      vertex 42.689815901551945 2.4 1.6
      vertex 70.5 2.4 1.6
      vertex 42.68981590155194 2.42 1.6
    endloop
  endfacet
  facet normal 0 1 0
    outer loop
      vertex 42.689815901551945 2.4 1.6
      vertex 43.101756898420355 2.4 2.1554381358431822
      vertex 70.5 2.4 1.6
    endloop
  endfacet
  facet normal 0 1 0
    outer loop
      vertex 43.101756898420355 2.4 2.1554381358431822
      vertex 43.505370114786835 2.4 2.8288261053920185
      vertex 70.5 2.4 1.6
    endloop
  endfacet
  facet normal 0 1 0
    outer loop
      vertex 43.505370114786835 2.4 2.8288261053920185
      vertex 43.84103626009029 2.4 3.5385325410792814
      vertex 70.5 2.4 1.6
    endloop
  endfacet
  facet normal 0 1 0
    outer loop
      vertex 70.5 2.4 1.6
      vertex 43.84103626009029 2.4 3.5385325410792814
      vertex 44.105522685857665 2.4 4.277722581964301
    endloop
  endfacet
  facet normal 0 1 0
    outer loop
      vertex 70.5 2.4 1.6
      vertex 44.105522685857665 2.4 4.277722581964301
      vertex 44.29628224322584 2.4 5.039277423870974
    endloop
  endfacet
  facet normal 0 1 0
    outer loop
      vertex 70.5 2.4 1.6
      vertex 44.29628224322584 2.4 5.039277423870974
      vertex 44.41147781337757 2.4 5.815862877363514
    endloop
  endfacet
  facet normal 0 1 0
    outer loop
      vertex 70.5 2.4 1.6
      vertex 44.41147781337757 2.4 5.815862877363514
      vertex 44.449999999999996 2.4 6.6
    endloop
  endfacet
  facet normal 0 0 1
    outer loop
      vertex 30.21018409844805 2.42 1.6
      vertex 42.68981590155194 2.42 1.6
      vertex 70.5 96.5 1.6
    endloop
  endfacet
  facet normal 0 0 1
    outer loop
      vertex 42.68981590155194 2.42 1.6
      vertex 70.5 2.4 1.6
      vertex 70.5 96.5 1.6
    endloop
  endfacet
  facet normal -1 0 0
    outer loop
      vertex 70.5 2.4 1.6
      vertex 70.5 2.4 6.6
      vertex 70.5 96.5 1.6
    endloop
  endfacet
  facet normal 0 1 0
    outer loop
      vertex 70.5 2.4 1.6
      vertex 44.449999999999996 2.4 6.6
      vertex 70.5 2.4 6.6
    endloop
  endfacet
  facet normal -1 0 0
    outer loop
      vertex 70.5 2.4 6.6
      vertex 70.5 35.05 6.6
      vertex 70.5 96.5 1.6
    endloop
  endfacet
  facet normal 0 0 1
    outer loop
      vertex 2.4 2.4 1.6
      vertex 70.5 96.5 1.6
      vertex 42.68981590155194 96.49 1.6
    endloop
  endfacet
  facet normal 0 0 1
    outer loop
      vertex 42.68981590155194 96.49 1.6
      vertex 70.5 96.5 1.6
      vertex 42.68981590155194 96.5 1.6
    endloop
  endfacet
  facet normal 0 -1 0
    outer loop
      vertex 42.68981590155194 96.5 1.6
      vertex 70.5 96.5 1.6
      vertex 43.101756898420355 96.5 2.1554381358431822
    endloop
  endfacet
  facet normal 0 -1 0
    outer loop
      vertex 43.101756898420355 96.5 2.1554381358431822
      vertex 70.5 96.5 1.6
      vertex 43.505370114786835 96.5 2.8288261053920185
    endloop
  endfacet
  facet normal 0 -1 0
    outer loop
      vertex 43.505370114786835 96.5 2.8288261053920185
      vertex 70.5 96.5 1.6
      vertex 43.84103626009029 96.5 3.5385325410792814
    endloop
  endfacet
  facet normal 0 -1 0
    outer loop
      vertex 70.5 96.5 1.6
      vertex 44.105522685857665 96.5 4.277722581964301
      vertex 43.84103626009029 96.5 3.5385325410792814
    endloop
  endfacet
  facet normal 0 -1 0
    outer loop
      vertex 70.5 96.5 1.6
      vertex 44.29628224322584 96.5 5.039277423870974
      vertex 44.105522685857665 96.5 4.277722581964301
    endloop
  endfacet
  facet normal 0 -1 0
    outer loop
      vertex 70.5 96.5 1.6
      vertex 44.41147781337757 96.5 5.815862877363514
      vertex 44.29628224322584 96.5 5.039277423870974
    endloop
  endfacet
  facet normal 0 -1 0
    outer loop
      vertex 70.5 96.5 1.6
      vertex 44.449999999999996 96.5 6.6
      vertex 44.41147781337757 96.5 5.815862877363514
    endloop
  endfacet
  facet normal -1 0 0
    outer loop
      vertex 70.5 96.5 1.6
      vertex 70.5 35.05 6.6
      vertex 70.5 37.05 6.6
    endloop
  endfacet
  facet normal -1 0 0
    outer loop
      vertex 70.5 96.5 1.6
      vertex 70.5 37.05 6.6
      vertex 70.5 61.849999999999994 6.6
    endloop
  endfacet
  facet normal -1 0 0
    outer loop
      vertex 70.5 96.5 1.6
      vertex 70.5 61.849999999999994 6.6
      vertex 70.5 63.849999999999994 6.6
    endloop
  endfacet
  facet normal 0 -1 0
    outer loop
      vertex 70.5 96.5 1.6
      vertex 70.5 96.5 6.6
      vertex 44.449999999999996 96.5 6.6
    endloop
  endfacet
  facet normal -1 0 0
    outer loop
      vertex 70.5 96.5 1.6
      vertex 70.5 63.849999999999994 6.6
      vertex 70.5 96.5 6.6
    endloop
  endfacet
  facet normal -1 0 0
    outer loop
      vertex 0 35.05 6.6
      vertex 0 37.05 9.6
      vertex 0 37.05 6.6
    endloop
  endfacet
  facet normal 0 1 0
    outer loop
      vertex 0 37.05 6.6
      vertex 0 37.05 9.6
      vertex 2.4 37.05 6.6
    endloop
  endfacet
  facet normal 0 -1 0
    outer loop
      vertex 2.4 35.05 6.6
      vertex 2.4 35.05 9.6
      vertex 0 35.05 6.6
    endloop
  endfacet
  facet normal 1 0 0
    outer loop
      vertex 2.4 35.05 6.6
      vertex 2.4 37.05 6.6
      vertex 2.4 35.05 9.6
    endloop
  endfacet
  facet normal 0 -1 0
    outer loop
      vertex 0 35.05 6.6
      vertex 2.4 35.05 9.6
      vertex 0 35.05 9.6
    endloop
  endfacet
  facet normal -1 0 0
    outer loop
      vertex 0 35.05 6.6
      vertex 0 35.05 9.6
      vertex 0 37.05 9.6
    endloop
  endfacet
  facet normal 0 1 0
    outer loop
      vertex 2.4 37.05 6.6
      vertex 0 37.05 9.6
      vertex 2.4 37.05 9.6
    endloop
  endfacet
  facet normal 1 0 0
    outer loop
      vertex 2.4 37.05 6.6
      vertex 2.4 37.05 9.6
      vertex 2.4 35.05 9.6
    endloop
  endfacet
  facet normal 0 0 1
    outer loop
      vertex 0 35.05 9.6
      vertex 2.4 35.05 9.6
      vertex 0 37.05 9.6
    endloop
  endfacet
  facet normal 0 0 1
    outer loop
      vertex 2.4 35.05 9.6
      vertex 2.4 37.05 9.6
      vertex 0 37.05 9.6
    endloop
  endfacet
  facet normal -1 0 0
    outer loop
      vertex 0 61.849999999999994 6.6
      vertex 0 63.849999999999994 9.6
      vertex 0 63.849999999999994 6.6
    endloop
  endfacet
  facet normal 0 1 0
    outer loop
      vertex 0 63.849999999999994 6.6
      vertex 0 63.849999999999994 9.6
      vertex 2.4 63.849999999999994 6.6
    endloop
  endfacet
  facet normal 0 -1 0
    outer loop
      vertex 2.4 61.849999999999994 6.6
      vertex 2.4 61.849999999999994 9.6
      vertex 0 61.849999999999994 6.6
    endloop
  endfacet
  facet normal 1 0 0
    outer loop
      vertex 2.4 61.849999999999994 6.6
      vertex 2.4 63.849999999999994 6.6
      vertex 2.4 61.849999999999994 9.6
    endloop
  endfacet
  facet normal -1 0 0
    outer loop
      vertex 0 61.849999999999994 6.6
      vertex 0 61.849999999999994 9.6
      vertex 0 63.849999999999994 9.6
    endloop
  endfacet
  facet normal 0 -1 0
    outer loop
      vertex 0 61.849999999999994 6.6
      vertex 2.4 61.849999999999994 9.6
      vertex 0 61.849999999999994 9.6
    endloop
  endfacet
  facet normal 0 1 0
    outer loop
      vertex 2.4 63.849999999999994 6.6
      vertex 0 63.849999999999994 9.6
      vertex 2.4 63.849999999999994 9.6
    endloop
  endfacet
  facet normal 1 0 0
    outer loop
      vertex 2.4 63.849999999999994 6.6
      vertex 2.4 63.849999999999994 9.6
      vertex 2.4 61.849999999999994 9.6
    endloop
  endfacet
  facet normal 0 0 1
    outer loop
      vertex 0 61.849999999999994 9.6
      vertex 2.4 61.849999999999994 9.6
      vertex 0 63.849999999999994 9.6
    endloop
  endfacet
  facet normal 0 0 1
    outer loop
      vertex 2.4 61.849999999999994 9.6
      vertex 2.4 63.849999999999994 9.6
      vertex 0 63.849999999999994 9.6
    endloop
  endfacet
  facet normal -1 0 0
    outer loop
      vertex 70.5 35.05 6.6
      vertex 70.5 37.05 9.6
      vertex 70.5 37.05 6.6
    endloop
  endfacet
  facet normal 0 1 0
    outer loop
      vertex 70.5 37.05 6.6
      vertex 70.5 37.05 9.6
      vertex 72.9 37.05 6.6
    endloop
  endfacet
  facet normal 0 -1 0
    outer loop
      vertex 72.89999999999999 35.05 6.6
      vertex 72.9 35.05 9.6
      vertex 70.5 35.05 6.6
    endloop
  endfacet
  facet normal 1 -7.105427357601002e-15 -4.736951571734001e-15
    outer loop
      vertex 72.89999999999999 35.05 6.6
      vertex 72.9 37.05 6.6
      vertex 72.9 35.05 9.6
    endloop
  endfacet
  facet normal -1 0 0
    outer loop
      vertex 70.5 35.05 6.6
      vertex 70.5 35.05 9.6
      vertex 70.5 37.05 9.6
    endloop
  endfacet
  facet normal 0 -1 0
    outer loop
      vertex 70.5 35.05 6.6
      vertex 72.9 35.05 9.6
      vertex 70.5 35.05 9.6
    endloop
  endfacet
  facet normal 0 1 0
    outer loop
      vertex 72.9 37.05 6.6
      vertex 70.5 37.05 9.6
      vertex 72.9 37.05 9.6
    endloop
  endfacet
  facet normal 1 0 0
    outer loop
      vertex 72.9 37.05 6.6
      vertex 72.9 37.05 9.6
      vertex 72.9 35.05 9.6
    endloop
  endfacet
  facet normal 0 0 1
    outer loop
      vertex 70.5 35.05 9.6
      vertex 72.9 35.05 9.6
      vertex 70.5 37.05 9.6
    endloop
  endfacet
  facet normal 0 0 1
    outer loop
      vertex 72.9 35.05 9.6
      vertex 72.9 37.05 9.6
      vertex 70.5 37.05 9.6
    endloop
  endfacet
  facet normal -1 0 0
    outer loop
      vertex 70.5 61.849999999999994 6.6
      vertex 70.5 63.849999999999994 9.6
      vertex 70.5 63.849999999999994 6.6
    endloop
  endfacet
  facet normal 0 1 0
    outer loop
      vertex 70.5 63.849999999999994 6.6
      vertex 70.5 63.849999999999994 9.6
      vertex 72.9 63.849999999999994 6.6
    endloop
  endfacet
  facet normal 0 -1 0
    outer loop
      vertex 72.89999999999999 61.849999999999994 6.6
      vertex 72.9 61.849999999999994 9.6
      vertex 70.5 61.849999999999994 6.6
    endloop
  endfacet
  facet normal 1 -7.105427357601002e-15 -4.736951571734001e-15
    outer loop
      vertex 72.89999999999999 61.849999999999994 6.6
      vertex 72.9 63.849999999999994 6.6
      vertex 72.9 61.849999999999994 9.6
    endloop
  endfacet
  facet normal -1 0 0
    outer loop
      vertex 70.5 61.849999999999994 6.6
      vertex 70.5 61.849999999999994 9.6
      vertex 70.5 63.849999999999994 9.6
    endloop
  endfacet
  facet normal 0 -1 0
    outer loop
      vertex 70.5 61.849999999999994 6.6
      vertex 72.9 61.849999999999994 9.6
      vertex 70.5 61.849999999999994 9.6
    endloop
  endfacet
  facet normal 1 0 0
    outer loop
      vertex 72.9 63.849999999999994 6.6
      vertex 72.9 63.849999999999994 9.6
      vertex 72.9 61.849999999999994 9.6
    endloop
  endfacet
  facet normal 0 1 0
    outer loop
      vertex 72.9 63.849999999999994 6.6
      vertex 70.5 63.849999999999994 9.6
      vertex 72.9 63.849999999999994 9.6
    endloop
  endfacet
  facet normal 0 0 1
    outer loop
      vertex 70.5 61.849999999999994 9.6
      vertex 72.9 61.849999999999994 9.6
      vertex 70.5 63.849999999999994 9.6
    endloop
  endfacet
  facet normal 0 0 1
    outer loop
      vertex 72.9 61.849999999999994 9.6
      vertex 72.9 63.849999999999994 9.6
      vertex 70.5 63.849999999999994 9.6
    endloop
  endfacet
endsolid OpenSCAD_Model
