solid OpenSCAD_Model
  facet normal -1 0 0
    outer loop
      vertex 0 -5.555 0.40000000000000036
      vertex 0 -5.154999999999999 0.009999999999999787
      vertex 0 -5.154999999999999 0
    endloop
  endfacet
  facet normal -1 0 0
    outer loop
      vertex 0 -5.555 0.40000000000000036
      vertex 0 -5.555 4.100000000000001
      vertex 0 -5.154999999999999 0.009999999999999787
    endloop
  endfacet
  facet normal 0 -0.7071067811865475 -0.7071067811865475
    outer loop
      vertex 0 -5.555 0.40000000000000036
      vertex 0 -5.154999999999999 0
      vertex 3.6168229752729273 -5.555 0.40000000000000036
    endloop
  endfacet
  facet normal -1 0 0
    outer loop
      vertex 0 -5.555 4.100000000000001
      vertex 0 -3.25 4.100000000000001
      vertex 0 -3.25 4.090000000000002
    endloop
  endfacet
  facet normal 0 -1 0
    outer loop
      vertex 0 -5.555 0.40000000000000036
      vertex 3.6168229752729273 -5.555 4.100000000000001
      vertex 0 -5.555 4.100000000000001
    endloop
  endfacet
  facet normal 0 0 1
    outer loop
      vertex 0 -5.555 4.100000000000001
      vertex 3.6168229752729273 -5.555 4.100000000000001
      vertex 0 -3.25 4.100000000000001
    endloop
  endfacet
  facet normal -1 0 0
    outer loop
      vertex 0 -5.154999999999999 0
      vertex 0 -5.154999999999999 0.009999999999999787
      vertex 0 5.154999999999999 0
    endloop
  endfacet
  facet normal -1 0 0
    outer loop
      vertex 0 -5.154999999999999 0.009999999999999787
      vertex 0 -5.555 4.100000000000001
      vertex 0 5.154999999999999 0
    endloop
  endfacet
  facet normal 0 0 -1
    outer loop
      vertex 0 -5.154999999999999 0
      vertex 0 5.154999999999999 0
      vertex 3.8060088856294536 -5.154999999999999 0
    endloop
  endfacet
  facet normal -1 0 0
    outer loop
      vertex 0 -5.555 4.100000000000001
      vertex 0 -3.25 4.090000000000002
      vertex 0 5.154999999999999 0
    endloop
  endfacet
  facet normal 0 -0.7071067811865476 -0.7071067811865476
    outer loop
      vertex 0 -5.154999999999999 0
      vertex 3.8060088856294536 -5.154999999999999 0
      vertex 3.6168229752729273 -5.555 0.40000000000000036
    endloop
  endfacet
  facet normal 0 -1 0
    outer loop
      vertex 0 -5.555 0.40000000000000036
      vertex 3.6168229752729273 -5.555 0.40000000000000036
      vertex 3.6168229752729273 -5.555 4.100000000000001
    endloop
  endfacet
  facet normal 0 0 1
    outer loop
      vertex 0 -3.25 4.100000000000001
      vertex 3.6168229752729273 -5.555 4.100000000000001
      vertex 4.072192899438698 -4.592201188381077 4.100000000000001
    endloop
  endfacet
  facet normal 0 0 1
    outer loop
      vertex 0 -3.25 4.100000000000001
      vertex 4.072192899438698 -4.592201188381077 4.100000000000001
      vertex 4.468922538089765 -3.483416127053548 4.100000000000001
    endloop
  endfacet
  facet normal 0 0 1
    outer loop
      vertex 0 -3.25 4.100000000000001
      vertex 4.468922538089765 -3.483416127053548 4.100000000000001
      vertex 4.527390234215036 -3.25 4.100000000000001
    endloop
  endfacet
  facet normal 0 0 -1
    outer loop
      vertex 0 5.154999999999999 0
      vertex 4.072192899438698 -4.592201188381077 0
      vertex 3.8060088856294536 -5.154999999999999 0
    endloop
  endfacet
  facet normal 0 0 -1
    outer loop
      vertex 0 5.154999999999999 0
      vertex 4.468922538089765 -3.483416127053548 0
      vertex 4.072192899438698 -4.592201188381077 0
    endloop
  endfacet
  facet normal 0 0 -1
    outer loop
      vertex 0 5.154999999999999 0
      vertex 4.755061874142023 -2.341083864193539 0
      vertex 4.468922538089765 -3.483416127053548 0
    endloop
  endfacet
  facet normal -1 0 0
    outer loop
      vertex 0 -3.25 4.090000000000002
      vertex 0 3.25 4.090000000000002
      vertex 0 5.154999999999999 0
    endloop
  endfacet
  facet normal -1 0 0
    outer loop
      vertex 0 5.154999999999999 0
      vertex 0 5.555 4.100000000000001
      vertex 0 5.555 0.40000000000000036
    endloop
  endfacet
  facet normal 1.6279056952241557e-18 0.7071067811865475 -0.7071067811865475
    outer loop
      vertex 0 5.154999999999999 0
      vertex 0 5.555 0.40000000000000036
      vertex 3.6168229752729273 5.555 0.40000000000000036
    endloop
  endfacet
  facet normal 0 1 0
    outer loop
      vertex 0 5.555 0.40000000000000036
      vertex 0 5.555 4.100000000000001
      vertex 3.6168229752729273 5.555 0.40000000000000036
    endloop
  endfacet
  facet normal -1 0 0
    outer loop
      vertex 0 3.25 4.090000000000002
      vertex 0 3.25 4.100000000000001
      vertex 0 5.555 4.100000000000001
    endloop
  endfacet
  facet normal -1 0 0
    outer loop
      vertex 0 5.154999999999999 0
      vertex 0 3.25 4.090000000000002
      vertex 0 5.555 4.100000000000001
    endloop
  endfacet
  facet normal 0 0 1
    outer loop
      vertex 0 3.25 4.100000000000001
      vertex 4.072192899438698 4.592201188381077 4.100000000000001
      vertex 0 5.555 4.100000000000001
    endloop
  endfacet
  facet normal 0 0 -1
    outer loop
      vertex 0 5.154999999999999 0
      vertex 4.92785522936962 -1.1762056839547272 0
      vertex 4.755061874142023 -2.341083864193539 0
    endloop
  endfacet
  facet normal 0 0 -1
    outer loop
      vertex 0 5.154999999999999 0
      vertex 4.985638509303258 0 0
      vertex 4.92785522936962 -1.1762056839547272 0
    endloop
  endfacet
  facet normal 0 0 -1
    outer loop
      vertex 0 5.154999999999999 0
      vertex 4.92785522936962 1.1762056839547272 0
      vertex 4.985638509303258 0 0
    endloop
  endfacet
  facet normal 0 0 -1
    outer loop
      vertex 0 5.154999999999999 0
      vertex 3.8060088856294536 5.154999999999999 0
      vertex 4.072192899438698 4.592201188381077 0
    endloop
  endfacet
  facet normal 0 0.7071067811865476 -0.7071067811865476
    outer loop
      vertex 0 5.154999999999999 0
      vertex 3.6168229752729273 5.555 0.40000000000000036
      vertex 3.8060088856294536 5.154999999999999 0
    endloop
  endfacet
  facet normal 0 0 -1
    outer loop
      vertex 0 5.154999999999999 0
      vertex 4.468922538089765 3.483416127053548 0
      vertex 4.755061874142023 2.341083864193539 0
    endloop
  endfacet
  facet normal 0 0 -1
    outer loop
      vertex 0 5.154999999999999 0
      vertex 4.755061874142023 2.341083864193539 0
      vertex 4.92785522936962 1.1762056839547272 0
    endloop
  endfacet
  facet normal 0 0 -1
    outer loop
      vertex 0 5.154999999999999 0
      vertex 4.072192899438698 4.592201188381077 0
      vertex 4.468922538089765 3.483416127053548 0
    endloop
  endfacet
  facet normal 0 1 0
    outer loop
      vertex 0 5.555 4.100000000000001
      vertex 3.6168229752729273 5.555 4.100000000000001
      vertex 3.6168229752729273 5.555 0.40000000000000036
    endloop
  endfacet
  facet normal 0 0 1
    outer loop
      vertex 0 5.555 4.100000000000001
      vertex 4.072192899438698 4.592201188381077 4.100000000000001
      vertex 3.6168229752729273 5.555 4.100000000000001
    endloop
  endfacet
  facet normal 0 0 1
    outer loop
      vertex 0 3.25 4.100000000000001
      vertex 4.527390234215036 3.25 4.100000000000001
      vertex 4.468922538089765 3.483416127053548 4.100000000000001
    endloop
  endfacet
  facet normal 0 0 1
    outer loop
      vertex 0 3.25 4.100000000000001
      vertex 4.468922538089765 3.483416127053548 4.100000000000001
      vertex 4.072192899438698 4.592201188381077 4.100000000000001
    endloop
  endfacet
  facet normal 0 -1 0
    outer loop
      vertex 0 -3.25 4.100000000000001
      vertex 4.527390234215036 -3.25 8.350000000000001
      vertex 0 -3.25 8.350000000000001
    endloop
  endfacet
  facet normal -1 0 0
    outer loop
      vertex 0 -3.25 4.090000000000002
      vertex 0 -3.25 4.100000000000001
      vertex 0 3.25 8.350000000000001
    endloop
  endfacet
  facet normal 0 0 1
    outer loop
      vertex 0 -3.25 8.350000000000001
      vertex 0.48425421036992145 -1.2722075445642904 8.350000000000001
      vertex 0.4500000000000002 -1.1 8.350000000000001
    endloop
  endfacet
  facet normal 0 0 1
    outer loop
      vertex 0 -3.25 8.350000000000001
      vertex 0.4500000000000002 -1.1 8.350000000000001
      vertex 0.48425421036992145 -0.9277924554357097 8.350000000000001
    endloop
  endfacet
  facet normal 0 0 1
    outer loop
      vertex 0 -3.25 8.350000000000001
      vertex 0.5818019484660537 -1.4181980515339465 8.350000000000001
      vertex 0.48425421036992145 -1.2722075445642904 8.350000000000001
    endloop
  endfacet
  facet normal 0 0 1
    outer loop
      vertex 0 -3.25 8.350000000000001
      vertex 0.7277924554357096 -1.515745789630079 8.350000000000001
      vertex 0.5818019484660537 -1.4181980515339465 8.350000000000001
    endloop
  endfacet
  facet normal 0 0 1
    outer loop
      vertex 0 -3.25 8.350000000000001
      vertex 0.9000000000000004 -1.55 8.350000000000001
      vertex 0.7277924554357096 -1.515745789630079 8.350000000000001
    endloop
  endfacet
  facet normal 0 0 1
    outer loop
      vertex 0 -3.25 8.350000000000001
      vertex 1.0722075445642902 -1.515745789630079 8.350000000000001
      vertex 0.9000000000000004 -1.55 8.350000000000001
    endloop
  endfacet
  facet normal -1 0 0
    outer loop
      vertex 0 -3.25 4.100000000000001
      vertex 0 -3.25 8.350000000000001
      vertex 0 3.25 8.350000000000001
    endloop
  endfacet
  facet normal 0 0 1
    outer loop
      vertex 0 -3.25 8.350000000000001
      vertex 0.48425421036992145 -0.9277924554357097 8.350000000000001
      vertex 0 3.25 8.350000000000001
    endloop
  endfacet
  facet normal 0 0 1
    outer loop
      vertex 0 -3.25 8.350000000000001
      vertex 2.2277924554357087 -1.515745789630079 8.350000000000001
      vertex 1.0722075445642902 -1.515745789630079 8.350000000000001
    endloop
  endfacet
  facet normal 0 0 1
    outer loop
      vertex 0 -3.25 8.350000000000001
      vertex 2.3999999999999995 -1.55 8.350000000000001
      vertex 2.2277924554357087 -1.515745789630079 8.350000000000001
    endloop
  endfacet
  facet normal 0 0 1
    outer loop
      vertex 0 -3.25 8.350000000000001
      vertex 2.5722075445642902 -1.515745789630079 8.350000000000001
      vertex 2.3999999999999995 -1.55 8.350000000000001
    endloop
  endfacet
  facet normal 0 0 1
    outer loop
      vertex 1.0722075445642902 -1.515745789630079 8.350000000000001
      vertex 2.0818019484660537 -1.4181980515339465 8.350000000000001
      vertex 1.218198051533947 -1.4181980515339465 8.350000000000001
    endloop
  endfacet
  facet normal 0 0 1
    outer loop
      vertex 0 -3.25 8.350000000000001
      vertex 2.7181980515339452 -1.4181980515339465 8.350000000000001
      vertex 2.5722075445642902 -1.515745789630079 8.350000000000001
    endloop
  endfacet
  facet normal 0 0 1
    outer loop
      vertex 1.0722075445642902 -1.515745789630079 8.350000000000001
      vertex 2.2277924554357087 -1.515745789630079 8.350000000000001
      vertex 2.0818019484660537 -1.4181980515339465 8.350000000000001
    endloop
  endfacet
  facet normal 0 0 1
    outer loop
      vertex 1.218198051533947 -1.4181980515339465 8.350000000000001
      vertex 1.9842542103699197 -1.2722075445642904 8.350000000000001
      vertex 1.3157457896300793 -1.2722075445642904 8.350000000000001
    endloop
  endfacet
  facet normal 0 0 1
    outer loop
      vertex 1.3157457896300793 -1.2722075445642904 8.350000000000001
      vertex 1.9500000000000002 -1.1 8.350000000000001
      vertex 1.3500000000000005 -1.1 8.350000000000001
    endloop
  endfacet
  facet normal 0 0 1
    outer loop
      vertex 1.3500000000000005 -1.1 8.350000000000001
      vertex 1.9842542103699197 -0.9277924554357097 8.350000000000001
      vertex 1.3157457896300793 -0.9277924554357097 8.350000000000001
    endloop
  endfacet
  facet normal 0 0 1
    outer loop
      vertex 1.218198051533947 -0.7818019484660537 8.350000000000001
      vertex 1.3157457896300793 -0.9277924554357097 8.350000000000001
      vertex 2.0818019484660537 -0.7818019484660537 8.350000000000001
    endloop
  endfacet
  facet normal 0 0 1
    outer loop
      vertex 1.218198051533947 -1.4181980515339465 8.350000000000001
      vertex 2.0818019484660537 -1.4181980515339465 8.350000000000001
      vertex 1.9842542103699197 -1.2722075445642904 8.350000000000001
    endloop
  endfacet
  facet normal 0 0 1
    outer loop
      vertex 1.3157457896300793 -1.2722075445642904 8.350000000000001
      vertex 1.9842542103699197 -1.2722075445642904 8.350000000000001
      vertex 1.9500000000000002 -1.1 8.350000000000001
    endloop
  endfacet
  facet normal 0 0 1
    outer loop
      vertex 1.3500000000000005 -1.1 8.350000000000001
      vertex 1.9500000000000002 -1.1 8.350000000000001
      vertex 1.9842542103699197 -0.9277924554357097 8.350000000000001
    endloop
  endfacet
  facet normal 0 0 1
    outer loop
      vertex 1.3157457896300793 -0.9277924554357097 8.350000000000001
      vertex 1.9842542103699197 -0.9277924554357097 8.350000000000001
      vertex 2.0818019484660537 -0.7818019484660537 8.350000000000001
    endloop
  endfacet
  facet normal 0 -1 0
    outer loop
      vertex 0 -3.25 4.100000000000001
      vertex 4.527390234215036 -3.25 4.100000000000001
      vertex 4.527390234215036 -3.25 8.350000000000001
    endloop
  endfacet
  facet normal 0 0 1
    outer loop
      vertex 0 -3.25 8.350000000000001
      vertex 4.527390234215036 -3.25 8.350000000000001
      vertex 4.385638509303258 -2.411698057264677 8.350000000000001
    endloop
  endfacet
  facet normal 0 0 1
    outer loop
      vertex 0 -3.25 8.350000000000001
      vertex 3.5818019484660537 -1.4181980515339465 8.350000000000001
      vertex 2.7181980515339452 -1.4181980515339465 8.350000000000001
    endloop
  endfacet
  facet normal 0 0 1
    outer loop
      vertex 0 -3.25 8.350000000000001
      vertex 3.8999999999999995 -1.55 8.350000000000001
      vertex 3.7277924554357087 -1.515745789630079 8.350000000000001
    endloop
  endfacet
  facet normal 0 0 1
    outer loop
      vertex 0 -3.25 8.350000000000001
      vertex 3.7277924554357087 -1.515745789630079 8.350000000000001
      vertex 3.5818019484660537 -1.4181980515339465 8.350000000000001
    endloop
  endfacet
  facet normal 0 0 1
    outer loop
      vertex 0 -3.25 8.350000000000001
      vertex 4.385638509303258 -2.411698057264677 8.350000000000001
      vertex 3.8999999999999995 -1.55 8.350000000000001
    endloop
  endfacet
  facet normal 0 0 1
    outer loop
      vertex 2.7181980515339452 -1.4181980515339465 8.350000000000001
      vertex 3.4842542103699197 -1.2722075445642904 8.350000000000001
      vertex 2.8157457896300793 -1.2722075445642904 8.350000000000001
    endloop
  endfacet
  facet normal 0 0 1
    outer loop
      vertex 2.8157457896300793 -1.2722075445642904 8.350000000000001
      vertex 3.45 -1.1 8.350000000000001
      vertex 2.8499999999999988 -1.1 8.350000000000001
    endloop
  endfacet
  facet normal 0 0 1
    outer loop
      vertex 2.7181980515339452 -0.7818019484660537 8.350000000000001
      vertex 2.8157457896300793 -0.9277924554357097 8.350000000000001
      vertex 3.4842542103699197 -0.9277924554357097 8.350000000000001
    endloop
  endfacet
  facet normal 0 0 1
    outer loop
      vertex 2.8499999999999988 -1.1 8.350000000000001
      vertex 3.4842542103699197 -0.9277924554357097 8.350000000000001
      vertex 2.8157457896300793 -0.9277924554357097 8.350000000000001
    endloop
  endfacet
  facet normal 0 0 1
    outer loop
      vertex 2.8157457896300793 -1.2722075445642904 8.350000000000001
      vertex 3.4842542103699197 -1.2722075445642904 8.350000000000001
      vertex 3.45 -1.1 8.350000000000001
    endloop
  endfacet
  facet normal 0 0 1
    outer loop
      vertex 2.7181980515339452 -1.4181980515339465 8.350000000000001
      vertex 3.5818019484660537 -1.4181980515339465 8.350000000000001
      vertex 3.4842542103699197 -1.2722075445642904 8.350000000000001
    endloop
  endfacet
  facet normal 0 0 1
    outer loop
      vertex 2.8499999999999988 -1.1 8.350000000000001
      vertex 3.45 -1.1 8.350000000000001
      vertex 3.4842542103699197 -0.9277924554357097 8.350000000000001
    endloop
  endfacet
  facet normal -1 0 0
    outer loop
      vertex 0 -3.25 4.090000000000002
      vertex 0 3.25 4.100000000000001
      vertex 0 3.25 4.090000000000002
    endloop
  endfacet
  facet normal -1 0 0
    outer loop
      vertex 0 -3.25 4.090000000000002
      vertex 0 3.25 8.350000000000001
      vertex 0 3.25 4.100000000000001
    endloop
  endfacet
  facet normal 0 0 1
    outer loop
      vertex 0.48425421036992145 -0.9277924554357097 8.350000000000001
      vertex 0.5818019484660537 -0.7818019484660537 8.350000000000001
      vertex 0 3.25 8.350000000000001
    endloop
  endfacet
  facet normal 0 0 1
    outer loop
      vertex 0.5818019484660537 -0.7818019484660537 8.350000000000001
      vertex 0.7277924554357096 -0.6842542103699211 8.350000000000001
      vertex 0 3.25 8.350000000000001
    endloop
  endfacet
  facet normal 0 0 1
    outer loop
      vertex 0.7277924554357096 -0.6842542103699211 8.350000000000001
      vertex 0.9000000000000004 -0.6500000000000001 8.350000000000001
      vertex 0 3.25 8.350000000000001
    endloop
  endfacet
  facet normal 0 0 1
    outer loop
      vertex 0.9000000000000004 -0.6500000000000001 8.350000000000001
      vertex 1.0722075445642902 -0.6842542103699211 8.350000000000001
      vertex 0 3.25 8.350000000000001
    endloop
  endfacet
  facet normal 0 0 1
    outer loop
      vertex 1.218198051533947 -0.7818019484660537 8.350000000000001
      vertex 0 3.25 8.350000000000001
      vertex 1.0722075445642902 -0.6842542103699211 8.350000000000001
    endloop
  endfacet
  facet normal 0 0 1
    outer loop
      vertex 1.218198051533947 -0.7818019484660537 8.350000000000001
      vertex 2.0818019484660537 -0.7818019484660537 8.350000000000001
      vertex 0 3.25 8.350000000000001
    endloop
  endfacet
  facet normal 0 0 1
    outer loop
      vertex 2.0818019484660537 -0.7818019484660537 8.350000000000001
      vertex 2.2277924554357087 -0.6842542103699211 8.350000000000001
      vertex 0 3.25 8.350000000000001
    endloop
  endfacet
  facet normal 0 0 1
    outer loop
      vertex 2.2277924554357087 -0.6842542103699211 8.350000000000001
      vertex 2.3999999999999995 -0.6500000000000001 8.350000000000001
      vertex 0 3.25 8.350000000000001
    endloop
  endfacet
  facet normal 0 0 1
    outer loop
      vertex 2.3999999999999995 -0.6500000000000001 8.350000000000001
      vertex 2.5722075445642902 -0.6842542103699211 8.350000000000001
      vertex 0 3.25 8.350000000000001
    endloop
  endfacet
  facet normal 0 0 1
    outer loop
      vertex 0 3.25 8.350000000000001
      vertex 2.5722075445642902 -0.6842542103699211 8.350000000000001
      vertex 2.7181980515339452 -0.7818019484660537 8.350000000000001
    endloop
  endfacet
  facet normal 0 1 0
    outer loop
      vertex 0 3.25 4.100000000000001
      vertex 0 3.25 8.350000000000001
      vertex 4.527390234215036 3.25 4.100000000000001
    endloop
  endfacet
  facet normal 0 0 1
    outer loop
      vertex 0 3.25 8.350000000000001
      vertex 2.7181980515339452 -0.7818019484660537 8.350000000000001
      vertex 3.4842542103699197 -0.9277924554357097 8.350000000000001
    endloop
  endfacet
  facet normal 0 0 1
    outer loop
      vertex 0 3.25 8.350000000000001
      vertex 3.4842542103699197 -0.9277924554357097 8.350000000000001
      vertex 3.5818019484660537 -0.7818019484660537 8.350000000000001
    endloop
  endfacet
  facet normal 0 0 1
    outer loop
      vertex 0 3.25 8.350000000000001
      vertex 3.5818019484660537 -0.7818019484660537 8.350000000000001
      vertex 3.7277924554357087 -0.6842542103699211 8.350000000000001
    endloop
  endfacet
  facet normal 0 0 1
    outer loop
      vertex 0 3.25 8.350000000000001
      vertex 3.7277924554357087 -0.6842542103699211 8.350000000000001
      vertex 3.8999999999999995 -0.6500000000000001 8.350000000000001
    endloop
  endfacet
  facet normal 0 0 1
    outer loop
      vertex 0 3.25 8.350000000000001
      vertex 3.8999999999999995 -0.6500000000000001 8.350000000000001
      vertex 4.07220754456429 -0.6842542103699211 8.350000000000001
    endloop
  endfacet
  facet normal 0 0 1
    outer loop
      vertex 0 3.25 8.350000000000001
      vertex 4.07220754456429 -0.6842542103699211 8.350000000000001
      vertex 4.218198051533945 -0.7818019484660537 8.350000000000001
    endloop
  endfacet
  facet normal 0 0 1
    outer loop
      vertex 0 3.25 8.350000000000001
      vertex 4.218198051533945 -0.7818019484660537 8.350000000000001
      vertex 4.385638509303258 1.404387296400792 8.350000000000001
    endloop
  endfacet
  facet normal 0 0 1
    outer loop
      vertex 0 3.25 8.350000000000001
      vertex 4.385638509303258 1.404387296400792 8.350000000000001
      vertex 4.441015254641484 2.4011129547531684 8.350000000000001
    endloop
  endfacet
  facet normal 0 1 0
    outer loop
      vertex 0 3.25 8.350000000000001
      vertex 4.527390234215036 3.25 8.350000000000001
      vertex 4.527390234215036 3.25 4.100000000000001
    endloop
  endfacet
  facet normal 0 0 1
    outer loop
      vertex 0 3.25 8.350000000000001
      vertex 4.441015254641484 2.4011129547531684 8.350000000000001
      vertex 4.527390234215036 3.25 8.350000000000001
    endloop
  endfacet
  facet normal 0 0 1
    outer loop
      vertex 3.8999999999999995 -1.55 8.350000000000001
      vertex 4.385638509303258 -2.411698057264677 8.350000000000001
      vertex 4.07220754456429 -1.515745789630079 8.350000000000001
    endloop
  endfacet
  facet normal 0 0 1
    outer loop
      vertex 4.07220754456429 -1.515745789630079 8.350000000000001
      vertex 4.385638509303258 -2.411698057264677 8.350000000000001
      vertex 4.218198051533945 -1.4181980515339465 8.350000000000001
    endloop
  endfacet
  facet normal 0 0 1
    outer loop
      vertex 4.218198051533945 -1.4181980515339465 8.350000000000001
      vertex 4.385638509303258 -2.411698057264677 8.350000000000001
      vertex 4.315745789630079 -1.2722075445642904 8.350000000000001
    endloop
  endfacet
  facet normal 0 0 1
    outer loop
      vertex 4.315745789630079 -1.2722075445642904 8.350000000000001
      vertex 4.385638509303258 -2.411698057264677 8.350000000000001
      vertex 4.349999999999999 -1.1 8.350000000000001
    endloop
  endfacet
  facet normal 0 0 1
    outer loop
      vertex 4.349999999999999 -1.1 8.350000000000001
      vertex 4.385638509303258 -2.411698057264677 8.350000000000001
      vertex 4.385638509303258 1.404387296400792 8.350000000000001
    endloop
  endfacet
  facet normal 0 0 1
    outer loop
      vertex 4.349999999999999 -1.1 8.350000000000001
      vertex 4.385638509303258 1.404387296400792 8.350000000000001
      vertex 4.315745789630079 -0.9277924554357097 8.350000000000001
    endloop
  endfacet
  facet normal 0 0 1
    outer loop
      vertex 4.218198051533945 -0.7818019484660537 8.350000000000001
      vertex 4.315745789630079 -0.9277924554357097 8.350000000000001
      vertex 4.385638509303258 1.404387296400792 8.350000000000001
    endloop
  endfacet
  facet normal 0 0 1
    outer loop
      vertex 4.527390234215036 -3.25 8.350000000000001
      vertex 4.715255454358515 -2.5 8.350000000000001
      vertex 4.385638509303258 -2.411698057264677 8.350000000000001
    endloop
  endfacet
  facet normal 0 0 1
    outer loop
      vertex 4.527390234215036 3.25 8.350000000000001
      vertex 4.441015254641484 2.4011129547531684 8.350000000000001
      vertex 4.715255454358515 2.5 8.350000000000001
    endloop
  endfacet
  facet normal 0.9039892931234449 -0.42755509343027875 0
    outer loop
      vertex 3.6168229752729273 -5.555 0.40000000000000036
      vertex 3.8060088856294536 -5.154999999999999 0
      vertex 3.6168229752729273 -5.555 4.100000000000001
    endloop
  endfacet
  facet normal 0.9039892931234436 -0.4275550934302816 1.625164146379793e-18
    outer loop
      vertex 3.8060088856294536 -5.154999999999999 0
      vertex 4.072192899438698 -4.592201188381077 0
      vertex 4.072192899438698 -4.592201188381077 4.100000000000001
    endloop
  endfacet
  facet normal 0.9415440651830204 -0.3368898533922211 5.285039301105963e-18
    outer loop
      vertex 4.072192899438698 -4.592201188381077 0
      vertex 4.468922538089765 -3.483416127053548 0
      vertex 4.468922538089765 -3.483416127053548 4.100000000000001
    endloop
  endfacet
  facet normal 0.970031253194544 -0.2429801799032634 -1.8144607345494717e-16
    outer loop
      vertex 4.468922538089765 -3.483416127053548 0
      vertex 4.755061874142023 -2.341083864193539 0
      vertex 4.527390234215036 -3.25 4.100000000000001
    endloop
  endfacet
  facet normal 0.9039892931234441 -0.4275550934302805 -2.0390231151615252e-16
    outer loop
      vertex 3.6168229752729273 -5.555 4.100000000000001
      vertex 3.8060088856294536 -5.154999999999999 0
      vertex 4.072192899438698 -4.592201188381077 4.100000000000001
    endloop
  endfacet
  facet normal 0.9415440651830204 -0.3368898533922211 0
    outer loop
      vertex 4.072192899438698 -4.592201188381077 0
      vertex 4.468922538089765 -3.483416127053548 4.100000000000001
      vertex 4.072192899438698 -4.592201188381077 4.100000000000001
    endloop
  endfacet
  facet normal 0.9700312531945433 -0.2429801799032664 0
    outer loop
      vertex 4.468922538089765 -3.483416127053548 0
      vertex 4.527390234215036 -3.25 4.100000000000001
      vertex 4.468922538089765 -3.483416127053548 4.100000000000001
    endloop
  endfacet
  facet normal 0.9700312531945443 -0.24298017990326265 0
    outer loop
      vertex 4.527390234215036 -3.25 4.100000000000001
      vertex 4.755061874142023 -2.341083864193539 0
      vertex 4.527390234215036 -3.25 8.350000000000001
    endloop
  endfacet
  facet normal 0.989176509964781 -0.14673047445536164 0
    outer loop
      vertex 4.755061874142023 -2.341083864193539 0
      vertex 4.92785522936962 -1.1762056839547272 0
      vertex 4.755061874142023 -2.341083864193539 6.550000000000001
    endloop
  endfacet
  facet normal 0.9987954562051723 -0.049067674327418334 0
    outer loop
      vertex 4.92785522936962 -1.1762056839547272 0
      vertex 4.985638509303258 0 0
      vertex 4.92785522936962 -1.1762056839547272 6.550000000000001
    endloop
  endfacet
  facet normal 0.9700312531945454 -0.24298017990325774 0
    outer loop
      vertex 4.755061874142023 -2.341083864193539 0
      vertex 4.755061874142023 -2.341083864193539 6.550000000000001
      vertex 4.715255454358515 -2.5 6.550000000000001
    endloop
  endfacet
  facet normal 0.9700312531945439 -0.2429801799032641 -1.645953756908083e-16
    outer loop
      vertex 4.755061874142023 -2.341083864193539 0
      vertex 4.715255454358515 -2.5 6.550000000000001
      vertex 4.527390234215036 -3.25 8.350000000000001
    endloop
  endfacet
  facet normal 0.989176509964781 -0.14673047445536164 0
    outer loop
      vertex 4.92785522936962 -1.1762056839547272 0
      vertex 4.92785522936962 -1.1762056839547272 6.550000000000001
      vertex 4.755061874142023 -2.341083864193539 6.550000000000001
    endloop
  endfacet
  facet normal 0.9987954562051723 -0.049067674327418334 0
    outer loop
      vertex 4.985638509303258 0 0
      vertex 4.985638509303258 0 6.550000000000001
      vertex 4.92785522936962 -1.1762056839547272 6.550000000000001
    endloop
  endfacet
  facet normal 0.9700312531945441 -0.24298017990326373 0
    outer loop
      vertex 4.527390234215036 -3.25 8.350000000000001
      vertex 4.715255454358515 -2.5 6.550000000000001
      vertex 4.715255454358515 -2.5 8.350000000000001
    endloop
  endfacet
  facet normal 0.9987954562051723 0.049067674327418334 0
    outer loop
      vertex 4.985638509303258 0 0
      vertex 4.92785522936962 1.1762056839547272 0
      vertex 4.985638509303258 0 6.550000000000001
    endloop
  endfacet
  facet normal 0.989176509964781 0.14673047445536164 0
    outer loop
      vertex 4.92785522936962 1.1762056839547272 0
      vertex 4.755061874142023 2.341083864193539 0
      vertex 4.92785522936962 1.1762056839547272 6.550000000000001
    endloop
  endfacet
  facet normal 0.9039892931234436 0.4275550934302816 -1.625164146379793e-18
    outer loop
      vertex 3.8060088856294536 5.154999999999999 0
      vertex 4.072192899438698 4.592201188381077 4.100000000000001
      vertex 4.072192899438698 4.592201188381077 0
    endloop
  endfacet
  facet normal 0.9039892931234449 0.42755509343027875 0
    outer loop
      vertex 3.6168229752729273 5.555 0.40000000000000036
      vertex 3.6168229752729273 5.555 4.100000000000001
      vertex 3.8060088856294536 5.154999999999999 0
    endloop
  endfacet
  facet normal 0.9415440651830204 0.3368898533922211 0
    outer loop
      vertex 4.072192899438698 4.592201188381077 0
      vertex 4.072192899438698 4.592201188381077 4.100000000000001
      vertex 4.468922538089765 3.483416127053548 0
    endloop
  endfacet
  facet normal 0.970031253194544 0.2429801799032634 2.8804491578882553e-19
    outer loop
      vertex 4.755061874142023 2.341083864193539 0
      vertex 4.468922538089765 3.483416127053548 0
      vertex 4.468922538089765 3.483416127053548 4.100000000000001
    endloop
  endfacet
  facet normal 0.9415440651830204 0.3368898533922211 0
    outer loop
      vertex 4.468922538089765 3.483416127053548 0
      vertex 4.072192899438698 4.592201188381077 4.100000000000001
      vertex 4.468922538089765 3.483416127053548 4.100000000000001
    endloop
  endfacet
  facet normal 0.9039892931234441 0.4275550934302805 -2.0357943724756712e-16
    outer loop
      vertex 3.6168229752729273 5.555 4.100000000000001
      vertex 4.072192899438698 4.592201188381077 4.100000000000001
      vertex 3.8060088856294536 5.154999999999999 0
    endloop
  endfacet
  facet normal 0.9700312531945434 0.2429801799032664 -9.00649199446928e-16
    outer loop
      vertex 4.755061874142023 2.341083864193539 0
      vertex 4.468922538089765 3.483416127053548 4.100000000000001
      vertex 4.527390234215036 3.25 4.100000000000001
    endloop
  endfacet
  facet normal 0.9700312531945443 0.24298017990326262 -3.2983161292234897e-18
    outer loop
      vertex 4.755061874142023 2.341083864193539 0
      vertex 4.527390234215036 3.25 4.100000000000001
      vertex 4.527390234215036 3.25 8.350000000000001
    endloop
  endfacet
  facet normal 0.9987954562051723 0.049067674327418334 0
    outer loop
      vertex 4.92785522936962 1.1762056839547272 0
      vertex 4.92785522936962 1.1762056839547272 6.550000000000001
      vertex 4.985638509303258 0 6.550000000000001
    endloop
  endfacet
  facet normal 0.989176509964781 0.14673047445536164 0
    outer loop
      vertex 4.755061874142023 2.341083864193539 0
      vertex 4.755061874142023 2.341083864193539 6.550000000000001
      vertex 4.92785522936962 1.1762056839547272 6.550000000000001
    endloop
  endfacet
  facet normal 0.9700312531945454 0.24298017990325774 0
    outer loop
      vertex 4.755061874142023 2.341083864193539 0
      vertex 4.715255454358515 2.5 6.550000000000001
      vertex 4.755061874142023 2.341083864193539 6.550000000000001
    endloop
  endfacet
  facet normal 0.9700312531945439 0.24298017990326407 -1.6424594789277813e-16
    outer loop
      vertex 4.755061874142023 2.341083864193539 0
      vertex 4.527390234215036 3.25 8.350000000000001
      vertex 4.715255454358515 2.5 6.550000000000001
    endloop
  endfacet
  facet normal 0.9700312531945441 0.24298017990326373 0
    outer loop
      vertex 4.527390234215036 3.25 8.350000000000001
      vertex 4.715255454358515 2.5 8.350000000000001
      vertex 4.715255454358515 2.5 6.550000000000001
    endloop
  endfacet
  facet normal 0.5555702330196018 0.8314696123025455 0
    outer loop
      vertex 0.5818019484660537 -1.4181980515339465 7.650000000000002
      vertex 0.5818019484660537 -1.4181980515339465 8.350000000000001
      vertex 0.7277924554357096 -1.515745789630079 7.650000000000002
    endloop
  endfacet
  facet normal 0.19509032201612833 0.9807852804032304 0
    outer loop
      vertex 0.7277924554357096 -1.515745789630079 7.650000000000002
      vertex 0.7277924554357096 -1.515745789630079 8.350000000000001
      vertex 0.9000000000000004 -1.55 7.650000000000002
    endloop
  endfacet
  facet normal 0.5555702330196018 0.8314696123025455 -5.874150686217169e-18
    outer loop
      vertex 0.5818019484660537 -1.4181980515339465 8.350000000000001
      vertex 0.7277924554357096 -1.515745789630079 8.350000000000001
      vertex 0.7277924554357096 -1.515745789630079 7.650000000000002
    endloop
  endfacet
  facet normal 0.19509032201612833 0.9807852804032304 0
    outer loop
      vertex 0.9000000000000004 -1.55 7.650000000000002
      vertex 0.7277924554357096 -1.515745789630079 8.350000000000001
      vertex 0.9000000000000004 -1.55 8.350000000000001
    endloop
  endfacet
  facet normal 0 0 1
    outer loop
      vertex 0.4500000000000002 -1.1 7.650000000000002
      vertex 0.48425421036992145 -1.2722075445642904 7.650000000000002
      vertex 0.48425421036992145 -0.9277924554357097 7.650000000000002
    endloop
  endfacet
  facet normal 0 0 1
    outer loop
      vertex 0.5818019484660537 -1.4181980515339465 7.650000000000002
      vertex 0.5818019484660537 -0.7818019484660537 7.650000000000002
      vertex 0.48425421036992145 -1.2722075445642904 7.650000000000002
    endloop
  endfacet
  facet normal 0 0 1
    outer loop
      vertex 0.48425421036992145 -1.2722075445642904 7.650000000000002
      vertex 0.5818019484660537 -0.7818019484660537 7.650000000000002
      vertex 0.48425421036992145 -0.9277924554357097 7.650000000000002
    endloop
  endfacet
  facet normal 0 0 1
    outer loop
      vertex 0.5818019484660537 -1.4181980515339465 7.650000000000002
      vertex 0.7277924554357096 -0.6842542103699211 7.650000000000002
      vertex 0.5818019484660537 -0.7818019484660537 7.650000000000002
    endloop
  endfacet
  facet normal 0 0 1
    outer loop
      vertex 0.5818019484660537 -1.4181980515339465 7.650000000000002
      vertex 0.7277924554357096 -1.515745789630079 7.650000000000002
      vertex 0.7277924554357096 -0.6842542103699211 7.650000000000002
    endloop
  endfacet
  facet normal 0 0 1
    outer loop
      vertex 0.7277924554357096 -1.515745789630079 7.650000000000002
      vertex 0.9000000000000004 -1.55 7.650000000000002
      vertex 0.9000000000000004 -0.6500000000000001 7.650000000000002
    endloop
  endfacet
  facet normal 0 0 1
    outer loop
      vertex 0.7277924554357096 -1.515745789630079 7.650000000000002
      vertex 0.9000000000000004 -0.6500000000000001 7.650000000000002
      vertex 0.7277924554357096 -0.6842542103699211 7.650000000000002
    endloop
  endfacet
  facet normal 0.8314696123025465 0.5555702330196004 -3.0418067575522196e-18
    outer loop
      vertex 0.5818019484660537 -1.4181980515339465 7.650000000000002
      vertex 0.48425421036992145 -1.2722075445642904 7.650000000000002
      vertex 0.48425421036992145 -1.2722075445642904 8.350000000000001
    endloop
  endfacet
  facet normal 0.9807852804032302 0.19509032201613005 0
    outer loop
      vertex 0.4500000000000002 -1.1 7.650000000000002
      vertex 0.4500000000000002 -1.1 8.350000000000001
      vertex 0.48425421036992145 -1.2722075445642904 7.650000000000002
    endloop
  endfacet
  facet normal 0.8314696123025465 0.5555702330196004 0
    outer loop
      vertex 0.5818019484660537 -1.4181980515339465 7.650000000000002
      vertex 0.48425421036992145 -1.2722075445642904 8.350000000000001
      vertex 0.5818019484660537 -1.4181980515339465 8.350000000000001
    endloop
  endfacet
  facet normal 0.9807852804032302 0.19509032201613005 0
    outer loop
      vertex 0.48425421036992145 -1.2722075445642904 7.650000000000002
      vertex 0.4500000000000002 -1.1 8.350000000000001
      vertex 0.48425421036992145 -1.2722075445642904 8.350000000000001
    endloop
  endfacet
  facet normal 0.9807852804032301 -0.19509032201612989 0
    outer loop
      vertex 0.4500000000000002 -1.1 7.650000000000002
      vertex 0.48425421036992145 -0.9277924554357097 8.350000000000001
      vertex 0.4500000000000002 -1.1 8.350000000000001
    endloop
  endfacet
  facet normal 0.9807852804032301 -0.19509032201612989 -6.385292936648889e-20
    outer loop
      vertex 0.4500000000000002 -1.1 7.650000000000002
      vertex 0.48425421036992145 -0.9277924554357097 7.650000000000002
      vertex 0.48425421036992145 -0.9277924554357097 8.350000000000001
    endloop
  endfacet
  facet normal 0.8314696123025463 -0.5555702330196007 -3.887054247263479e-19
    outer loop
      vertex 0.48425421036992145 -0.9277924554357097 7.650000000000002
      vertex 0.5818019484660537 -0.7818019484660537 7.650000000000002
      vertex 0.5818019484660537 -0.7818019484660537 8.350000000000001
    endloop
  endfacet
  facet normal 0.8314696123025463 -0.5555702330196007 0
    outer loop
      vertex 0.48425421036992145 -0.9277924554357097 7.650000000000002
      vertex 0.5818019484660537 -0.7818019484660537 8.350000000000001
      vertex 0.48425421036992145 -0.9277924554357097 8.350000000000001
    endloop
  endfacet
  facet normal 0.5555702330196023 -0.8314696123025452 0
    outer loop
      vertex 0.5818019484660537 -0.7818019484660537 7.650000000000002
      vertex 0.7277924554357096 -0.6842542103699211 8.350000000000001
      vertex 0.5818019484660537 -0.7818019484660537 8.350000000000001
    endloop
  endfacet
  facet normal 0.5555702330196023 -0.8314696123025452 -3.3932908628568976e-18
    outer loop
      vertex 0.5818019484660537 -0.7818019484660537 7.650000000000002
      vertex 0.7277924554357096 -0.6842542103699211 7.650000000000002
      vertex 0.7277924554357096 -0.6842542103699211 8.350000000000001
    endloop
  endfacet
  facet normal 0.19509032201612772 -0.9807852804032305 1.1906380631722466e-19
    outer loop
      vertex 0.7277924554357096 -0.6842542103699211 7.650000000000002
      vertex 0.9000000000000004 -0.6500000000000001 7.650000000000002
      vertex 0.9000000000000004 -0.6500000000000001 8.350000000000001
    endloop
  endfacet
  facet normal 0.19509032201612772 -0.9807852804032305 0
    outer loop
      vertex 0.7277924554357096 -0.6842542103699211 7.650000000000002
      vertex 0.9000000000000004 -0.6500000000000001 8.350000000000001
      vertex 0.7277924554357096 -0.6842542103699211 8.350000000000001
    endloop
  endfacet
  facet normal -0.1950903220161293 0.9807852804032302 0
    outer loop
      vertex 0.9000000000000004 -1.55 7.650000000000002
      vertex 0.9000000000000004 -1.55 8.350000000000001
      vertex 1.0722075445642902 -1.515745789630079 7.650000000000002
    endloop
  endfacet
  facet normal -0.5555702330195995 0.8314696123025471 0
    outer loop
      vertex 1.0722075445642902 -1.515745789630079 7.650000000000002
      vertex 1.0722075445642902 -1.515745789630079 8.350000000000001
      vertex 1.218198051533947 -1.4181980515339465 7.650000000000002
    endloop
  endfacet
  facet normal -0.1950903220161293 0.9807852804032302 -1.1908182224814013e-19
    outer loop
      vertex 0.9000000000000004 -1.55 8.350000000000001
      vertex 1.0722075445642902 -1.515745789630079 8.350000000000001
      vertex 1.0722075445642902 -1.515745789630079 7.650000000000002
    endloop
  endfacet
  facet normal -0.5555702330195995 0.8314696123025471 0
    outer loop
      vertex 1.218198051533947 -1.4181980515339465 7.650000000000002
      vertex 1.0722075445642902 -1.515745789630079 8.350000000000001
      vertex 1.218198051533947 -1.4181980515339465 8.350000000000001
    endloop
  endfacet
  facet normal 0 0 1
    outer loop
      vertex 0.9000000000000004 -1.55 7.650000000000002
      vertex 1.0722075445642902 -1.515745789630079 7.650000000000002
      vertex 1.0722075445642902 -0.6842542103699211 7.650000000000002
    endloop
  endfacet
  facet normal 0 0 1
    outer loop
      vertex 0.9000000000000004 -1.55 7.650000000000002
      vertex 1.0722075445642902 -0.6842542103699211 7.650000000000002
      vertex 0.9000000000000004 -0.6500000000000001 7.650000000000002
    endloop
  endfacet
  facet normal 0 0 1
    outer loop
      vertex 1.0722075445642902 -1.515745789630079 7.650000000000002
      vertex 1.218198051533947 -0.7818019484660537 7.650000000000002
      vertex 1.0722075445642902 -0.6842542103699211 7.650000000000002
    endloop
  endfacet
  facet normal 0 0 1
    outer loop
      vertex 1.0722075445642902 -1.515745789630079 7.650000000000002
      vertex 1.218198051533947 -1.4181980515339465 7.650000000000002
      vertex 1.218198051533947 -0.7818019484660537 7.650000000000002
    endloop
  endfacet
  facet normal 0 0 1
    outer loop
      vertex 1.218198051533947 -1.4181980515339465 7.650000000000002
      vertex 1.3157457896300793 -1.2722075445642904 7.650000000000002
      vertex 1.3157457896300793 -0.9277924554357097 7.650000000000002
    endloop
  endfacet
  facet normal 0 0 1
    outer loop
      vertex 1.218198051533947 -1.4181980515339465 7.650000000000002
      vertex 1.3157457896300793 -0.9277924554357097 7.650000000000002
      vertex 1.218198051533947 -0.7818019484660537 7.650000000000002
    endloop
  endfacet
  facet normal 0 0 1
    outer loop
      vertex 1.3157457896300793 -1.2722075445642904 7.650000000000002
      vertex 1.3500000000000005 -1.1 7.650000000000002
      vertex 1.3157457896300793 -0.9277924554357097 7.650000000000002
    endloop
  endfacet
  facet normal -0.5555702330196 -0.8314696123025468 4.177444795996145e-18
    outer loop
      vertex 1.218198051533947 -0.7818019484660537 8.350000000000001
      vertex 1.0722075445642902 -0.6842542103699211 8.350000000000001
      vertex 1.0722075445642902 -0.6842542103699211 7.650000000000002
    endloop
  endfacet
  facet normal -0.8314696123025465 0.5555702330196004 0
    outer loop
      vertex 1.218198051533947 -1.4181980515339465 7.650000000000002
      vertex 1.218198051533947 -1.4181980515339465 8.350000000000001
      vertex 1.3157457896300793 -1.2722075445642904 7.650000000000002
    endloop
  endfacet
  facet normal -0.9807852804032302 0.19509032201613005 0
    outer loop
      vertex 1.3157457896300793 -1.2722075445642904 7.650000000000002
      vertex 1.3157457896300793 -1.2722075445642904 8.350000000000001
      vertex 1.3500000000000005 -1.1 7.650000000000002
    endloop
  endfacet
  facet normal -0.9807852804032301 -0.19509032201612989 0
    outer loop
      vertex 1.3500000000000005 -1.1 7.650000000000002
      vertex 1.3500000000000005 -1.1 8.350000000000001
      vertex 1.3157457896300793 -0.9277924554357097 7.650000000000002
    endloop
  endfacet
  facet normal -0.8314696123025465 0.5555702330196004 3.0418067575522196e-18
    outer loop
      vertex 1.218198051533947 -1.4181980515339465 8.350000000000001
      vertex 1.3157457896300793 -1.2722075445642904 8.350000000000001
      vertex 1.3157457896300793 -1.2722075445642904 7.650000000000002
    endloop
  endfacet
  facet normal -0.9807852804032302 0.19509032201613005 0
    outer loop
      vertex 1.3500000000000005 -1.1 7.650000000000002
      vertex 1.3157457896300793 -1.2722075445642904 8.350000000000001
      vertex 1.3500000000000005 -1.1 8.350000000000001
    endloop
  endfacet
  facet normal -0.5555702330196 -0.8314696123025468 0
    outer loop
      vertex 1.218198051533947 -0.7818019484660537 7.650000000000002
      vertex 1.218198051533947 -0.7818019484660537 8.350000000000001
      vertex 1.0722075445642902 -0.6842542103699211 7.650000000000002
    endloop
  endfacet
  facet normal -0.8314696123025463 -0.5555702330196007 3.887054247263479e-19
    outer loop
      vertex 1.218198051533947 -0.7818019484660537 7.650000000000002
      vertex 1.3157457896300793 -0.9277924554357097 7.650000000000002
      vertex 1.3157457896300793 -0.9277924554357097 8.350000000000001
    endloop
  endfacet
  facet normal -0.9807852804032301 -0.19509032201612989 0
    outer loop
      vertex 1.3157457896300793 -0.9277924554357097 7.650000000000002
      vertex 1.3500000000000005 -1.1 8.350000000000001
      vertex 1.3157457896300793 -0.9277924554357097 8.350000000000001
    endloop
  endfacet
  facet normal -0.8314696123025463 -0.5555702330196007 0
    outer loop
      vertex 1.218198051533947 -0.7818019484660537 7.650000000000002
      vertex 1.3157457896300793 -0.9277924554357097 8.350000000000001
      vertex 1.218198051533947 -0.7818019484660537 8.350000000000001
    endloop
  endfacet
  facet normal -0.19509032201612866 -0.9807852804032303 4.194706721556123e-19
    outer loop
      vertex 0.9000000000000004 -0.6500000000000001 7.650000000000002
      vertex 1.0722075445642902 -0.6842542103699211 7.650000000000002
      vertex 1.0722075445642902 -0.6842542103699211 8.350000000000001
    endloop
  endfacet
  facet normal -0.19509032201612866 -0.9807852804032303 0
    outer loop
      vertex 0.9000000000000004 -0.6500000000000001 7.650000000000002
      vertex 1.0722075445642902 -0.6842542103699211 8.350000000000001
      vertex 0.9000000000000004 -0.6500000000000001 8.350000000000001
    endloop
  endfacet
  facet normal 0.5555702330196042 0.8314696123025439 0
    outer loop
      vertex 2.0818019484660537 -1.4181980515339465 7.650000000000002
      vertex 2.0818019484660537 -1.4181980515339465 8.350000000000001
      vertex 2.2277924554357087 -1.515745789630079 7.650000000000002
    endloop
  endfacet
  facet normal 0.5555702330196042 0.8314696123025439 -6.6583046193572646e-18
    outer loop
      vertex 2.0818019484660537 -1.4181980515339465 8.350000000000001
      vertex 2.2277924554357087 -1.515745789630079 8.350000000000001
      vertex 2.2277924554357087 -1.515745789630079 7.650000000000002
    endloop
  endfacet
  facet normal 0.19509032201612833 0.9807852804032304 0
    outer loop
      vertex 2.2277924554357087 -1.515745789630079 7.650000000000002
      vertex 2.2277924554357087 -1.515745789630079 8.350000000000001
      vertex 2.3999999999999995 -1.55 7.650000000000002
    endloop
  endfacet
  facet normal -0.19509032201612833 0.9807852804032304 0
    outer loop
      vertex 2.3999999999999995 -1.55 7.650000000000002
      vertex 2.3999999999999995 -1.55 8.350000000000001
      vertex 2.5722075445642902 -1.515745789630079 7.650000000000002
    endloop
  endfacet
  facet normal 0.19509032201612833 0.9807852804032304 0
    outer loop
      vertex 2.3999999999999995 -1.55 7.650000000000002
      vertex 2.2277924554357087 -1.515745789630079 8.350000000000001
      vertex 2.3999999999999995 -1.55 8.350000000000001
    endloop
  endfacet
  facet normal -0.5555702330196042 0.8314696123025439 0
    outer loop
      vertex 2.5722075445642902 -1.515745789630079 7.650000000000002
      vertex 2.5722075445642902 -1.515745789630079 8.350000000000001
      vertex 2.7181980515339452 -1.4181980515339465 7.650000000000002
    endloop
  endfacet
  facet normal -0.19509032201612833 0.9807852804032304 4.1945265622549756e-19
    outer loop
      vertex 2.3999999999999995 -1.55 8.350000000000001
      vertex 2.5722075445642902 -1.515745789630079 8.350000000000001
      vertex 2.5722075445642902 -1.515745789630079 7.650000000000002
    endloop
  endfacet
  facet normal -0.5555702330196042 0.8314696123025439 0
    outer loop
      vertex 2.7181980515339452 -1.4181980515339465 7.650000000000002
      vertex 2.5722075445642902 -1.515745789630079 8.350000000000001
      vertex 2.7181980515339452 -1.4181980515339465 8.350000000000001
    endloop
  endfacet
  facet normal 0 0 1
    outer loop
      vertex 1.9842542103699197 -1.2722075445642904 7.650000000000002
      vertex 1.9842542103699197 -0.9277924554357097 7.650000000000002
      vertex 1.9500000000000002 -1.1 7.650000000000002
    endloop
  endfacet
  facet normal 0 0 1
    outer loop
      vertex 1.9842542103699197 -1.2722075445642904 7.650000000000002
      vertex 2.0818019484660537 -0.7818019484660537 7.650000000000002
      vertex 1.9842542103699197 -0.9277924554357097 7.650000000000002
    endloop
  endfacet
  facet normal 0 0 1
    outer loop
      vertex 2.0818019484660537 -1.4181980515339465 7.650000000000002
      vertex 2.0818019484660537 -0.7818019484660537 7.650000000000002
      vertex 1.9842542103699197 -1.2722075445642904 7.650000000000002
    endloop
  endfacet
  facet normal 0 0 1
    outer loop
      vertex 2.0818019484660537 -1.4181980515339465 7.650000000000002
      vertex 2.2277924554357087 -1.515745789630079 7.650000000000002
      vertex 2.2277924554357087 -0.6842542103699211 7.650000000000002
    endloop
  endfacet
  facet normal 0 0 1
    outer loop
      vertex 2.0818019484660537 -1.4181980515339465 7.650000000000002
      vertex 2.2277924554357087 -0.6842542103699211 7.650000000000002
      vertex 2.0818019484660537 -0.7818019484660537 7.650000000000002
    endloop
  endfacet
  facet normal 0.8314696123025418 0.5555702330196074 4.096001070778525e-18
    outer loop
      vertex 2.0818019484660537 -1.4181980515339465 7.650000000000002
      vertex 1.9842542103699197 -1.2722075445642904 7.650000000000002
      vertex 1.9842542103699197 -1.2722075445642904 8.350000000000001
    endloop
  endfacet
  facet normal 0.9807852804032321 0.1950903220161203 5.267270578002617e-19
    outer loop
      vertex 1.9842542103699197 -1.2722075445642904 7.650000000000002
      vertex 1.9500000000000002 -1.1 7.650000000000002
      vertex 1.9500000000000002 -1.1 8.350000000000001
    endloop
  endfacet
  facet normal 0.9807852804032321 -0.19509032201612017 0
    outer loop
      vertex 1.9500000000000002 -1.1 7.650000000000002
      vertex 1.9842542103699197 -0.9277924554357097 8.350000000000001
      vertex 1.9500000000000002 -1.1 8.350000000000001
    endloop
  endfacet
  facet normal 0.9807852804032321 0.1950903220161203 0
    outer loop
      vertex 1.9842542103699197 -1.2722075445642904 7.650000000000002
      vertex 1.9500000000000002 -1.1 8.350000000000001
      vertex 1.9842542103699197 -1.2722075445642904 8.350000000000001
    endloop
  endfacet
  facet normal 0.9807852804032321 -0.19509032201612017 2.1869883199484986e-18
    outer loop
      vertex 1.9500000000000002 -1.1 7.650000000000002
      vertex 1.9842542103699197 -0.9277924554357097 7.650000000000002
      vertex 1.9842542103699197 -0.9277924554357097 8.350000000000001
    endloop
  endfacet
  facet normal 0.8314696123025416 -0.5555702330196076 0
    outer loop
      vertex 1.9842542103699197 -0.9277924554357097 7.650000000000002
      vertex 2.0818019484660537 -0.7818019484660537 8.350000000000001
      vertex 1.9842542103699197 -0.9277924554357097 8.350000000000001
    endloop
  endfacet
  facet normal 0.8314696123025418 0.5555702330196074 0
    outer loop
      vertex 2.0818019484660537 -1.4181980515339465 7.650000000000002
      vertex 1.9842542103699197 -1.2722075445642904 8.350000000000001
      vertex 2.0818019484660537 -1.4181980515339465 8.350000000000001
    endloop
  endfacet
  facet normal 0.8314696123025416 -0.5555702330196076 6.587612442626352e-18
    outer loop
      vertex 1.9842542103699197 -0.9277924554357097 7.650000000000002
      vertex 2.0818019484660537 -0.7818019484660537 7.650000000000002
      vertex 2.0818019484660537 -0.7818019484660537 8.350000000000001
    endloop
  endfacet
  facet normal 0.5555702330196046 -0.8314696123025436 -2.609136929717643e-18
    outer loop
      vertex 2.0818019484660537 -0.7818019484660537 7.650000000000002
      vertex 2.2277924554357087 -0.6842542103699211 7.650000000000002
      vertex 2.2277924554357087 -0.6842542103699211 8.350000000000001
    endloop
  endfacet
  facet normal 0.5555702330196046 -0.8314696123025436 0
    outer loop
      vertex 2.0818019484660537 -0.7818019484660537 7.650000000000002
      vertex 2.2277924554357087 -0.6842542103699211 8.350000000000001
      vertex 2.0818019484660537 -0.7818019484660537 8.350000000000001
    endloop
  endfacet
  facet normal 0 0 1
    outer loop
      vertex 2.2277924554357087 -1.515745789630079 7.650000000000002
      vertex 2.3999999999999995 -1.55 7.650000000000002
      vertex 2.3999999999999995 -0.6500000000000001 7.650000000000002
    endloop
  endfacet
  facet normal 0 0 1
    outer loop
      vertex 2.2277924554357087 -1.515745789630079 7.650000000000002
      vertex 2.3999999999999995 -0.6500000000000001 7.650000000000002
      vertex 2.2277924554357087 -0.6842542103699211 7.650000000000002
    endloop
  endfacet
  facet normal 0 0 1
    outer loop
      vertex 2.3999999999999995 -1.55 7.650000000000002
      vertex 2.5722075445642902 -0.6842542103699211 7.650000000000002
      vertex 2.3999999999999995 -0.6500000000000001 7.650000000000002
    endloop
  endfacet
  facet normal 0 0 1
    outer loop
      vertex 2.3999999999999995 -1.55 7.650000000000002
      vertex 2.5722075445642902 -1.515745789630079 7.650000000000002
      vertex 2.5722075445642902 -0.6842542103699211 7.650000000000002
    endloop
  endfacet
  facet normal 0 0 1
    outer loop
      vertex 2.5722075445642902 -1.515745789630079 7.650000000000002
      vertex 2.7181980515339452 -1.4181980515339465 7.650000000000002
      vertex 2.7181980515339452 -0.7818019484660537 7.650000000000002
    endloop
  endfacet
  facet normal 0 0 1
    outer loop
      vertex 2.5722075445642902 -1.515745789630079 7.650000000000002
      vertex 2.7181980515339452 -0.7818019484660537 7.650000000000002
      vertex 2.5722075445642902 -0.6842542103699211 7.650000000000002
    endloop
  endfacet
  facet normal -0.5555702330196046 -0.8314696123025436 0
    outer loop
      vertex 2.7181980515339452 -0.7818019484660537 7.650000000000002
      vertex 2.7181980515339452 -0.7818019484660537 8.350000000000001
      vertex 2.5722075445642902 -0.6842542103699211 7.650000000000002
    endloop
  endfacet
  facet normal -0.5555702330196046 -0.8314696123025436 2.609136929717643e-18
    outer loop
      vertex 2.7181980515339452 -0.7818019484660537 8.350000000000001
      vertex 2.5722075445642902 -0.6842542103699211 8.350000000000001
      vertex 2.5722075445642902 -0.6842542103699211 7.650000000000002
    endloop
  endfacet
  facet normal 0.19509032201612772 -0.9807852804032305 1.1906380631722466e-19
    outer loop
      vertex 2.2277924554357087 -0.6842542103699211 7.650000000000002
      vertex 2.3999999999999995 -0.6500000000000001 7.650000000000002
      vertex 2.3999999999999995 -0.6500000000000001 8.350000000000001
    endloop
  endfacet
  facet normal 0.19509032201612772 -0.9807852804032305 0
    outer loop
      vertex 2.2277924554357087 -0.6842542103699211 7.650000000000002
      vertex 2.3999999999999995 -0.6500000000000001 8.350000000000001
      vertex 2.2277924554357087 -0.6842542103699211 8.350000000000001
    endloop
  endfacet
  facet normal -0.19509032201612772 -0.9807852804032305 0
    outer loop
      vertex 2.3999999999999995 -0.6500000000000001 7.650000000000002
      vertex 2.5722075445642902 -0.6842542103699211 8.350000000000001
      vertex 2.3999999999999995 -0.6500000000000001 8.350000000000001
    endloop
  endfacet
  facet normal -0.19509032201612772 -0.9807852804032305 -1.1906380631722466e-19
    outer loop
      vertex 2.3999999999999995 -0.6500000000000001 7.650000000000002
      vertex 2.5722075445642902 -0.6842542103699211 7.650000000000002
      vertex 2.5722075445642902 -0.6842542103699211 8.350000000000001
    endloop
  endfacet
  facet normal 0 0 1
    outer loop
      vertex 2.7181980515339452 -1.4181980515339465 7.650000000000002
      vertex 2.8157457896300793 -0.9277924554357097 7.650000000000002
      vertex 2.7181980515339452 -0.7818019484660537 7.650000000000002
    endloop
  endfacet
  facet normal 0 0 1
    outer loop
      vertex 2.7181980515339452 -1.4181980515339465 7.650000000000002
      vertex 2.8157457896300793 -1.2722075445642904 7.650000000000002
      vertex 2.8157457896300793 -0.9277924554357097 7.650000000000002
    endloop
  endfacet
  facet normal 0 0 1
    outer loop
      vertex 2.8157457896300793 -1.2722075445642904 7.650000000000002
      vertex 2.8499999999999988 -1.1 7.650000000000002
      vertex 2.8157457896300793 -0.9277924554357097 7.650000000000002
    endloop
  endfacet
  facet normal -0.8314696123025418 0.5555702330196074 0
    outer loop
      vertex 2.7181980515339452 -1.4181980515339465 7.650000000000002
      vertex 2.7181980515339452 -1.4181980515339465 8.350000000000001
      vertex 2.8157457896300793 -1.2722075445642904 7.650000000000002
    endloop
  endfacet
  facet normal -0.9807852804032321 0.1950903220161203 0
    outer loop
      vertex 2.8157457896300793 -1.2722075445642904 7.650000000000002
      vertex 2.8157457896300793 -1.2722075445642904 8.350000000000001
      vertex 2.8499999999999988 -1.1 7.650000000000002
    endloop
  endfacet
  facet normal -0.9807852804032321 -0.19509032201612017 0
    outer loop
      vertex 2.8499999999999988 -1.1 7.650000000000002
      vertex 2.8499999999999988 -1.1 8.350000000000001
      vertex 2.8157457896300793 -0.9277924554357097 7.650000000000002
    endloop
  endfacet
  facet normal -0.8314696123025418 0.5555702330196074 -4.096001070778525e-18
    outer loop
      vertex 2.7181980515339452 -1.4181980515339465 8.350000000000001
      vertex 2.8157457896300793 -1.2722075445642904 8.350000000000001
      vertex 2.8157457896300793 -1.2722075445642904 7.650000000000002
    endloop
  endfacet
  facet normal -0.9807852804032321 0.1950903220161203 0
    outer loop
      vertex 2.8499999999999988 -1.1 7.650000000000002
      vertex 2.8157457896300793 -1.2722075445642904 8.350000000000001
      vertex 2.8499999999999988 -1.1 8.350000000000001
    endloop
  endfacet
  facet normal -0.8314696123025416 -0.5555702330196076 -6.587612442626352e-18
    outer loop
      vertex 2.7181980515339452 -0.7818019484660537 7.650000000000002
      vertex 2.8157457896300793 -0.9277924554357097 7.650000000000002
      vertex 2.8157457896300793 -0.9277924554357097 8.350000000000001
    endloop
  endfacet
  facet normal -0.8314696123025416 -0.5555702330196076 0
    outer loop
      vertex 2.7181980515339452 -0.7818019484660537 7.650000000000002
      vertex 2.8157457896300793 -0.9277924554357097 8.350000000000001
      vertex 2.7181980515339452 -0.7818019484660537 8.350000000000001
    endloop
  endfacet
  facet normal -0.9807852804032321 -0.19509032201612017 0
    outer loop
      vertex 2.8157457896300793 -0.9277924554357097 7.650000000000002
      vertex 2.8499999999999988 -1.1 8.350000000000001
      vertex 2.8157457896300793 -0.9277924554357097 8.350000000000001
    endloop
  endfacet
  facet normal 0 0 1
    outer loop
      vertex 3.4842542103699197 -1.2722075445642904 7.650000000000002
      vertex 3.4842542103699197 -0.9277924554357097 7.650000000000002
      vertex 3.45 -1.1 7.650000000000002
    endloop
  endfacet
  facet normal 0 0 1
    outer loop
      vertex 3.5818019484660537 -1.4181980515339465 7.650000000000002
      vertex 3.5818019484660537 -0.7818019484660537 7.650000000000002
      vertex 3.4842542103699197 -1.2722075445642904 7.650000000000002
    endloop
  endfacet
  facet normal 0 0 1
    outer loop
      vertex 3.4842542103699197 -1.2722075445642904 7.650000000000002
      vertex 3.5818019484660537 -0.7818019484660537 7.650000000000002
      vertex 3.4842542103699197 -0.9277924554357097 7.650000000000002
    endloop
  endfacet
  facet normal 0.9807852804032321 0.1950903220161203 5.267270578002617e-19
    outer loop
      vertex 3.4842542103699197 -1.2722075445642904 7.650000000000002
      vertex 3.45 -1.1 7.650000000000002
      vertex 3.45 -1.1 8.350000000000001
    endloop
  endfacet
  facet normal 0.8314696123025418 0.5555702330196074 4.096001070778525e-18
    outer loop
      vertex 3.5818019484660537 -1.4181980515339465 7.650000000000002
      vertex 3.4842542103699197 -1.2722075445642904 7.650000000000002
      vertex 3.4842542103699197 -1.2722075445642904 8.350000000000001
    endloop
  endfacet
  facet normal 0.9807852804032321 0.1950903220161203 0
    outer loop
      vertex 3.4842542103699197 -1.2722075445642904 7.650000000000002
      vertex 3.45 -1.1 8.350000000000001
      vertex 3.4842542103699197 -1.2722075445642904 8.350000000000001
    endloop
  endfacet
  facet normal 0.9807852804032321 -0.19509032201612017 0
    outer loop
      vertex 3.45 -1.1 7.650000000000002
      vertex 3.4842542103699197 -0.9277924554357097 8.350000000000001
      vertex 3.45 -1.1 8.350000000000001
    endloop
  endfacet
  facet normal 0.8314696123025418 0.5555702330196074 0
    outer loop
      vertex 3.5818019484660537 -1.4181980515339465 7.650000000000002
      vertex 3.4842542103699197 -1.2722075445642904 8.350000000000001
      vertex 3.5818019484660537 -1.4181980515339465 8.350000000000001
    endloop
  endfacet
  facet normal 0.9807852804032321 -0.19509032201612017 2.1869883199484986e-18
    outer loop
      vertex 3.45 -1.1 7.650000000000002
      vertex 3.4842542103699197 -0.9277924554357097 7.650000000000002
      vertex 3.4842542103699197 -0.9277924554357097 8.350000000000001
    endloop
  endfacet
  facet normal 0.8314696123025416 -0.5555702330196076 6.587612442626352e-18
    outer loop
      vertex 3.4842542103699197 -0.9277924554357097 7.650000000000002
      vertex 3.5818019484660537 -0.7818019484660537 7.650000000000002
      vertex 3.5818019484660537 -0.7818019484660537 8.350000000000001
    endloop
  endfacet
  facet normal 0.8314696123025416 -0.5555702330196076 0
    outer loop
      vertex 3.4842542103699197 -0.9277924554357097 7.650000000000002
      vertex 3.5818019484660537 -0.7818019484660537 8.350000000000001
      vertex 3.4842542103699197 -0.9277924554357097 8.350000000000001
    endloop
  endfacet
  facet normal 0.5555702330196042 0.8314696123025439 0
    outer loop
      vertex 3.5818019484660537 -1.4181980515339465 7.650000000000002
      vertex 3.5818019484660537 -1.4181980515339465 8.350000000000001
      vertex 3.7277924554357087 -1.515745789630079 7.650000000000002
    endloop
  endfacet
  facet normal 0.19509032201612833 0.9807852804032304 0
    outer loop
      vertex 3.7277924554357087 -1.515745789630079 7.650000000000002
      vertex 3.7277924554357087 -1.515745789630079 8.350000000000001
      vertex 3.8999999999999995 -1.55 7.650000000000002
    endloop
  endfacet
  facet normal 0.5555702330196042 0.8314696123025439 0
    outer loop
      vertex 3.7277924554357087 -1.515745789630079 7.650000000000002
      vertex 3.5818019484660537 -1.4181980515339465 8.350000000000001
      vertex 3.7277924554357087 -1.515745789630079 8.350000000000001
    endloop
  endfacet
  facet normal -0.19509032201612833 0.9807852804032304 0
    outer loop
      vertex 3.8999999999999995 -1.55 7.650000000000002
      vertex 3.8999999999999995 -1.55 8.350000000000001
      vertex 4.07220754456429 -1.515745789630079 7.650000000000002
    endloop
  endfacet
  facet normal 0.19509032201612833 0.9807852804032304 -4.1945265622549756e-19
    outer loop
      vertex 3.7277924554357087 -1.515745789630079 8.350000000000001
      vertex 3.8999999999999995 -1.55 8.350000000000001
      vertex 3.8999999999999995 -1.55 7.650000000000002
    endloop
  endfacet
  facet normal -0.19509032201612833 0.9807852804032304 4.1945265622549756e-19
    outer loop
      vertex 3.8999999999999995 -1.55 8.350000000000001
      vertex 4.07220754456429 -1.515745789630079 8.350000000000001
      vertex 4.07220754456429 -1.515745789630079 7.650000000000002
    endloop
  endfacet
  facet normal -0.5555702330196042 0.8314696123025439 0
    outer loop
      vertex 4.07220754456429 -1.515745789630079 7.650000000000002
      vertex 4.07220754456429 -1.515745789630079 8.350000000000001
      vertex 4.218198051533945 -1.4181980515339465 7.650000000000002
    endloop
  endfacet
  facet normal -0.5555702330196042 0.8314696123025439 0
    outer loop
      vertex 4.218198051533945 -1.4181980515339465 7.650000000000002
      vertex 4.07220754456429 -1.515745789630079 8.350000000000001
      vertex 4.218198051533945 -1.4181980515339465 8.350000000000001
    endloop
  endfacet
  facet normal 0 0 1
    outer loop
      vertex 3.5818019484660537 -1.4181980515339465 7.650000000000002
      vertex 3.7277924554357087 -1.515745789630079 7.650000000000002
      vertex 3.7277924554357087 -0.6842542103699211 7.650000000000002
    endloop
  endfacet
  facet normal 0 0 1
    outer loop
      vertex 3.5818019484660537 -1.4181980515339465 7.650000000000002
      vertex 3.7277924554357087 -0.6842542103699211 7.650000000000002
      vertex 3.5818019484660537 -0.7818019484660537 7.650000000000002
    endloop
  endfacet
  facet normal 0 0 1
    outer loop
      vertex 3.7277924554357087 -1.515745789630079 7.650000000000002
      vertex 3.8999999999999995 -0.6500000000000001 7.650000000000002
      vertex 3.7277924554357087 -0.6842542103699211 7.650000000000002
    endloop
  endfacet
  facet normal 0 0 1
    outer loop
      vertex 3.7277924554357087 -1.515745789630079 7.650000000000002
      vertex 3.8999999999999995 -1.55 7.650000000000002
      vertex 3.8999999999999995 -0.6500000000000001 7.650000000000002
    endloop
  endfacet
  facet normal 0 0 1
    outer loop
      vertex 3.8999999999999995 -1.55 7.650000000000002
      vertex 4.07220754456429 -1.515745789630079 7.650000000000002
      vertex 4.07220754456429 -0.6842542103699211 7.650000000000002
    endloop
  endfacet
  facet normal 0 0 1
    outer loop
      vertex 3.8999999999999995 -1.55 7.650000000000002
      vertex 4.07220754456429 -0.6842542103699211 7.650000000000002
      vertex 3.8999999999999995 -0.6500000000000001 7.650000000000002
    endloop
  endfacet
  facet normal 0.5555702330196046 -0.8314696123025436 -2.609136929717643e-18
    outer loop
      vertex 3.5818019484660537 -0.7818019484660537 7.650000000000002
      vertex 3.7277924554357087 -0.6842542103699211 7.650000000000002
      vertex 3.7277924554357087 -0.6842542103699211 8.350000000000001
    endloop
  endfacet
  facet normal 0.5555702330196046 -0.8314696123025436 0
    outer loop
      vertex 3.5818019484660537 -0.7818019484660537 7.650000000000002
      vertex 3.7277924554357087 -0.6842542103699211 8.350000000000001
      vertex 3.5818019484660537 -0.7818019484660537 8.350000000000001
    endloop
  endfacet
  facet normal 0.19509032201612772 -0.9807852804032305 0
    outer loop
      vertex 3.7277924554357087 -0.6842542103699211 7.650000000000002
      vertex 3.8999999999999995 -0.6500000000000001 8.350000000000001
      vertex 3.7277924554357087 -0.6842542103699211 8.350000000000001
    endloop
  endfacet
  facet normal 0.19509032201612772 -0.9807852804032305 1.1906380631722466e-19
    outer loop
      vertex 3.7277924554357087 -0.6842542103699211 7.650000000000002
      vertex 3.8999999999999995 -0.6500000000000001 7.650000000000002
      vertex 3.8999999999999995 -0.6500000000000001 8.350000000000001
    endloop
  endfacet
  facet normal -0.19509032201612772 -0.9807852804032305 -1.1906380631722466e-19
    outer loop
      vertex 3.8999999999999995 -0.6500000000000001 7.650000000000002
      vertex 4.07220754456429 -0.6842542103699211 7.650000000000002
      vertex 4.07220754456429 -0.6842542103699211 8.350000000000001
    endloop
  endfacet
  facet normal -0.19509032201612772 -0.9807852804032305 0
    outer loop
      vertex 3.8999999999999995 -0.6500000000000001 7.650000000000002
      vertex 4.07220754456429 -0.6842542103699211 8.350000000000001
      vertex 3.8999999999999995 -0.6500000000000001 8.350000000000001
    endloop
  endfacet
  facet normal 0 0 1
    outer loop
      vertex 4.07220754456429 -1.515745789630079 7.650000000000002
      vertex 4.218198051533945 -1.4181980515339465 7.650000000000002
      vertex 4.218198051533945 -0.7818019484660537 7.650000000000002
    endloop
  endfacet
  facet normal 0 0 1
    outer loop
      vertex 4.218198051533945 -1.4181980515339465 7.650000000000002
      vertex 4.315745789630079 -0.9277924554357097 7.650000000000002
      vertex 4.218198051533945 -0.7818019484660537 7.650000000000002
    endloop
  endfacet
  facet normal 0 0 1
    outer loop
      vertex 4.07220754456429 -1.515745789630079 7.650000000000002
      vertex 4.218198051533945 -0.7818019484660537 7.650000000000002
      vertex 4.07220754456429 -0.6842542103699211 7.650000000000002
    endloop
  endfacet
  facet normal 0 0 1
    outer loop
      vertex 4.218198051533945 -1.4181980515339465 7.650000000000002
      vertex 4.315745789630079 -1.2722075445642904 7.650000000000002
      vertex 4.315745789630079 -0.9277924554357097 7.650000000000002
    endloop
  endfacet
  facet normal 0 0 1
    outer loop
      vertex 4.315745789630079 -1.2722075445642904 7.650000000000002
      vertex 4.349999999999999 -1.1 7.650000000000002
      vertex 4.315745789630079 -0.9277924554357097 7.650000000000002
    endloop
  endfacet
  facet normal -0.8314696123025418 0.5555702330196074 0
    outer loop
      vertex 4.218198051533945 -1.4181980515339465 7.650000000000002
      vertex 4.218198051533945 -1.4181980515339465 8.350000000000001
      vertex 4.315745789630079 -1.2722075445642904 7.650000000000002
    endloop
  endfacet
  facet normal -0.5555702330196046 -0.8314696123025436 0
    outer loop
      vertex 4.218198051533945 -0.7818019484660537 7.650000000000002
      vertex 4.218198051533945 -0.7818019484660537 8.350000000000001
      vertex 4.07220754456429 -0.6842542103699211 7.650000000000002
    endloop
  endfacet
  facet normal -0.5555702330196046 -0.8314696123025436 2.609136929717643e-18
    outer loop
      vertex 4.218198051533945 -0.7818019484660537 8.350000000000001
      vertex 4.07220754456429 -0.6842542103699211 8.350000000000001
      vertex 4.07220754456429 -0.6842542103699211 7.650000000000002
    endloop
  endfacet
  facet normal -0.8314696123025416 -0.5555702330196076 0
    outer loop
      vertex 4.218198051533945 -0.7818019484660537 7.650000000000002
      vertex 4.315745789630079 -0.9277924554357097 8.350000000000001
      vertex 4.218198051533945 -0.7818019484660537 8.350000000000001
    endloop
  endfacet
  facet normal -0.9807852804032321 0.1950903220161203 0
    outer loop
      vertex 4.315745789630079 -1.2722075445642904 7.650000000000002
      vertex 4.315745789630079 -1.2722075445642904 8.350000000000001
      vertex 4.349999999999999 -1.1 7.650000000000002
    endloop
  endfacet
  facet normal -0.9807852804032321 -0.19509032201612017 0
    outer loop
      vertex 4.349999999999999 -1.1 7.650000000000002
      vertex 4.349999999999999 -1.1 8.350000000000001
      vertex 4.315745789630079 -0.9277924554357097 7.650000000000002
    endloop
  endfacet
  facet normal -0.8314696123025418 0.5555702330196074 -4.096001070778525e-18
    outer loop
      vertex 4.218198051533945 -1.4181980515339465 8.350000000000001
      vertex 4.315745789630079 -1.2722075445642904 8.350000000000001
      vertex 4.315745789630079 -1.2722075445642904 7.650000000000002
    endloop
  endfacet
  facet normal -0.9807852804032321 0.1950903220161203 0
    outer loop
      vertex 4.349999999999999 -1.1 7.650000000000002
      vertex 4.315745789630079 -1.2722075445642904 8.350000000000001
      vertex 4.349999999999999 -1.1 8.350000000000001
    endloop
  endfacet
  facet normal -0.8314696123025416 -0.5555702330196076 -6.587612442626352e-18
    outer loop
      vertex 4.218198051533945 -0.7818019484660537 7.650000000000002
      vertex 4.315745789630079 -0.9277924554357097 7.650000000000002
      vertex 4.315745789630079 -0.9277924554357097 8.350000000000001
    endloop
  endfacet
  facet normal -0.9807852804032321 -0.19509032201612017 0
    outer loop
      vertex 4.315745789630079 -0.9277924554357097 7.650000000000002
      vertex 4.349999999999999 -1.1 8.350000000000001
      vertex 4.315745789630079 -0.9277924554357097 8.350000000000001
    endloop
  endfacet
  facet normal 0 0 1
    outer loop
      vertex 7.185638509303257 -2.5 8.350000000000001
      vertex 4.385638509303258 1.404387296400792 8.350000000000001
      vertex 4.385638509303258 -2.411698057264677 8.350000000000001
    endloop
  endfacet
  facet normal 0 0 -1
    outer loop
      vertex 7.185638509303257 -2.5 6.550000000000001
      vertex 4.715255454358515 -2.5 6.550000000000001
      vertex 4.755061874142023 -2.341083864193539 6.550000000000001
    endloop
  endfacet
  facet normal 0 -1 0
    outer loop
      vertex 7.185638509303257 -2.5 6.550000000000001
      vertex 4.715255454358515 -2.5 8.350000000000001
      vertex 4.715255454358515 -2.5 6.550000000000001
    endloop
  endfacet
  facet normal 0 0 1
    outer loop
      vertex 7.185638509303257 -2.5 8.350000000000001
      vertex 4.385638509303258 -2.411698057264677 8.350000000000001
      vertex 4.715255454358515 -2.5 8.350000000000001
    endloop
  endfacet
  facet normal 0 0 -1
    outer loop
      vertex 7.185638509303257 2.5 6.550000000000001
      vertex 4.755061874142023 -2.341083864193539 6.550000000000001
      vertex 4.92785522936962 -1.1762056839547272 6.550000000000001
    endloop
  endfacet
  facet normal 0 -1 0
    outer loop
      vertex 7.185638509303257 -2.5 6.550000000000001
      vertex 7.185638509303257 -2.5 8.350000000000001
      vertex 4.715255454358515 -2.5 8.350000000000001
    endloop
  endfacet
  facet normal 0 0 -1
    outer loop
      vertex 7.185638509303257 -2.5 6.550000000000001
      vertex 4.755061874142023 -2.341083864193539 6.550000000000001
      vertex 7.185638509303257 2.5 6.550000000000001
    endloop
  endfacet
  facet normal 1 0 0
    outer loop
      vertex 7.185638509303257 -2.5 6.550000000000001
      vertex 7.185638509303257 2.5 6.550000000000001
      vertex 7.185638509303257 -2.5 8.350000000000001
    endloop
  endfacet
  facet normal 0 0 1
    outer loop
      vertex 7.185638509303257 -2.5 8.350000000000001
      vertex 4.441015254641484 2.4011129547531684 8.350000000000001
      vertex 4.385638509303258 1.404387296400792 8.350000000000001
    endloop
  endfacet
  facet normal 0 0 -1
    outer loop
      vertex 7.185638509303257 2.5 6.550000000000001
      vertex 4.92785522936962 -1.1762056839547272 6.550000000000001
      vertex 4.985638509303258 0 6.550000000000001
    endloop
  endfacet
  facet normal 0 0 -1
    outer loop
      vertex 7.185638509303257 2.5 6.550000000000001
      vertex 4.985638509303258 0 6.550000000000001
      vertex 4.92785522936962 1.1762056839547272 6.550000000000001
    endloop
  endfacet
  facet normal 0 0 1
    outer loop
      vertex 7.185638509303257 -2.5 8.350000000000001
      vertex 4.715255454358515 2.5 8.350000000000001
      vertex 4.441015254641484 2.4011129547531684 8.350000000000001
    endloop
  endfacet
  facet normal 0 0 -1
    outer loop
      vertex 7.185638509303257 2.5 6.550000000000001
      vertex 4.92785522936962 1.1762056839547272 6.550000000000001
      vertex 4.755061874142023 2.341083864193539 6.550000000000001
    endloop
  endfacet
  facet normal 0 0 -1
    outer loop
      vertex 7.185638509303257 2.5 6.550000000000001
      vertex 4.755061874142023 2.341083864193539 6.550000000000001
      vertex 4.715255454358515 2.5 6.550000000000001
    endloop
  endfacet
  facet normal 0 1 0
    outer loop
      vertex 7.185638509303257 2.5 8.350000000000001
      vertex 4.715255454358515 2.5 6.550000000000001
      vertex 4.715255454358515 2.5 8.350000000000001
    endloop
  endfacet
  facet normal 0 0 1
    outer loop
      vertex 7.185638509303257 -2.5 8.350000000000001
      vertex 7.185638509303257 2.5 8.350000000000001
      vertex 4.715255454358515 2.5 8.350000000000001
    endloop
  endfacet
  facet normal 1 0 0
    outer loop
      vertex 7.185638509303257 -2.5 8.350000000000001
      vertex 7.185638509303257 2.5 6.550000000000001
      vertex 7.185638509303257 2.5 8.350000000000001
    endloop
  endfacet
  facet normal 0 1 0
    outer loop
      vertex 7.185638509303257 2.5 6.550000000000001
      vertex 4.715255454358515 2.5 6.550000000000001
      vertex 7.185638509303257 2.5 8.350000000000001
    endloop
  endfacet
endsolid OpenSCAD_Model
